<?xml version="1.0" standalone="no"?>
<!DOCTYPE svg PUBLIC "-//W3C//DTD SVG 1.1//EN" "http://www.w3.org/Graphics/SVG/1.1/DTD/svg11.dtd" >
<svg xmlns="http://www.w3.org/2000/svg" xmlns:xlink="http://www.w3.org/1999/xlink" version="1.1">
<metadata></metadata>
<defs>
<font id="mueller_gsj400-light" horiz-adv-x="1639" >
<font-face units-per-em="2048" ascent="1638" descent="-410" />
<missing-glyph horiz-adv-x="535" />
<glyph unicode="&#xfb01;" horiz-adv-x="1232" d="M63 1036q0 21 15.5 37t37.5 16h149v180q0 131 72 198.5t187 67.5q86 0 158 -29q35 -14 35 -54q0 -34 -25 -50t-52 -8q-96 30 -124 30q-129 -2 -129 -150v-185h237q21 0 36 -16t15 -37q0 -22 -15 -37t-36 -15h-237v-935q0 -25 -18 -43t-42 -18q-26 0 -44 18t-18 43v935 h-149q-22 0 -37.5 15t-15.5 37zM916 1356v93q0 23 17.5 39.5t40.5 16.5h20q23 0 40.5 -16.5t17.5 -39.5v-93q0 -23 -17.5 -39.5t-40.5 -16.5h-20q-23 0 -40.5 16.5t-17.5 39.5zM923 49v990q0 26 18 44t43 18t42.5 -18t17.5 -44v-990q0 -26 -17.5 -43.5t-42.5 -17.5 q-26 0 -43.5 18t-17.5 43z" />
<glyph unicode="&#xfb02;" horiz-adv-x="1231" d="M63 1036q0 21 15.5 37t37.5 16h149v180q0 131 72 198.5t187 67.5q86 0 158 -29q35 -14 35 -54q0 -34 -25 -50t-52 -8q-96 30 -124 30q-129 -2 -129 -150v-185h237q21 0 36 -16t15 -37q0 -22 -15 -37t-36 -15h-237v-935q0 -25 -18 -43t-42 -18q-26 0 -44 18t-18 43v935 h-149q-22 0 -37.5 15t-15.5 37zM923 49v1411q0 25 18 43t43 18t42.5 -18.5t17.5 -42.5v-1411q0 -26 -17.5 -43.5t-42.5 -17.5q-26 0 -43.5 18t-17.5 43z" />
<glyph horiz-adv-x="0" />
<glyph horiz-adv-x="682" />
<glyph unicode=" "  horiz-adv-x="535" />
<glyph unicode="&#x09;" horiz-adv-x="535" />
<glyph unicode="&#xa0;" horiz-adv-x="535" />
<glyph unicode="!" horiz-adv-x="586" d="M213 53v122q0 27 20 46.5t48 19.5h25q28 0 48 -19.5t20 -46.5v-122q0 -28 -19.5 -46.5t-48.5 -18.5h-25q-28 0 -48 19t-20 46zM220 1346v114q0 25 18.5 43t43.5 18h23q26 0 44.5 -18t18.5 -43v-114l-25 -881q0 -18 -12.5 -30t-29.5 -12h-15q-17 0 -29 12t-12 30z" />
<glyph unicode="&#x22;" horiz-adv-x="664" d="M101 1414v50q0 24 17 40.5t41 16.5h22q25 0 42 -16.5t17 -40.5v-50l-24 -391q0 -17 -11 -28t-28 -11h-14q-15 0 -26.5 11.5t-11.5 27.5zM425 1414v50q0 24 17 40.5t40 16.5h23q25 0 41.5 -16.5t16.5 -40.5v-50l-23 -391q0 -17 -11 -28t-28 -11h-15q-15 0 -26 11.5 t-11 27.5z" />
<glyph unicode="#" horiz-adv-x="1385" d="M94 554q0 23 17 40.5t41 17.5h216l42 307h-209q-23 0 -39 15.5t-16 37.5t16.5 38t38.5 16h223l53 398q2 22 19 37.5t40 15.5q28 0 44 -20t13 -45l-52 -386h349l54 398q2 22 18 37.5t39 15.5q28 0 44.5 -20t13.5 -45l-52 -386h218q22 0 38 -16t16 -38t-16 -37.5t-38 -15.5 h-233l-41 -307h220q23 0 40.5 -17.5t17.5 -40.5q0 -24 -17.5 -41t-40.5 -17h-236l-62 -456q-3 -23 -19 -37.5t-39 -14.5q-26 0 -42 19.5t-14 43.5l60 445h-350l-61 -456q-3 -23 -19.5 -37.5t-39.5 -14.5q-26 0 -42.5 19.5t-13.5 43.5l59 445h-200q-24 0 -41 17t-17 41z M484 612h351l41 307h-351z" />
<glyph unicode="$" horiz-adv-x="1346" d="M114 434q0 27 19.5 46.5t48.5 19.5q25 0 44.5 -18.5t21.5 -44.5q21 -158 122.5 -245.5t259.5 -104.5v633l-38 7q-86 16 -145.5 32.5t-117.5 44.5t-92.5 65t-55.5 93t-21 129q0 177 130 283.5t340 114.5v123q0 20 14 33.5t35 13.5q20 0 33.5 -13.5t13.5 -33.5v-124 q92 -7 169.5 -35.5t128.5 -68.5t87.5 -89.5t54 -97.5t21.5 -94q0 -28 -19.5 -48t-47.5 -20q-26 0 -44.5 15.5t-22.5 40.5q-25 128 -110 199.5t-217 84.5v-555l133 -24q39 -8 68 -15t71.5 -22.5t73.5 -33.5t65 -47.5t56 -65t36 -87t14 -111.5q0 -137 -69.5 -237t-184.5 -150 t-263 -54v-119q0 -20 -13.5 -34.5t-33.5 -14.5q-21 0 -35 14.5t-14 34.5v122q-118 10 -214 50.5t-159.5 103t-100 140t-42.5 164.5zM294 1090q0 -57 15 -96.5t48.5 -65t71 -40t98.5 -28.5q31 -7 103 -21v538q-68 -4 -126.5 -22.5t-106.5 -52t-75.5 -88t-27.5 -124.5zM726 84 q170 6 276.5 89.5t106.5 240.5q0 56 -14.5 98.5t-36 69t-58.5 46t-70.5 30t-83.5 20.5q-58 13 -120 23v-617z" />
<glyph unicode="%" horiz-adv-x="1837" d="M129 1076q0 197 94 306t239 109q139 0 235.5 -110t96.5 -305q0 -199 -92.5 -309.5t-239.5 -110.5t-240 110.5t-93 309.5zM232 1076q0 -152 64 -236.5t167 -84.5q102 0 165 84.5t63 236.5q0 143 -65 230t-163 87q-102 0 -166.5 -86.5t-64.5 -230.5zM510 32q0 8 6 22 l736 1399q14 24 39 24q19 0 32 -13t13 -31q0 -10 -5 -22l-737 -1400q-12 -23 -39 -23q-19 0 -32 13t-13 31zM1042 393q0 197 94 306t239 109q139 0 235.5 -110t96.5 -305q0 -199 -92.5 -309.5t-239.5 -110.5t-240 110.5t-93 309.5zM1146 393q0 -152 63.5 -236t166.5 -84 t166 84t63 236q0 143 -65.5 230t-163.5 87q-102 0 -166 -86.5t-64 -230.5z" />
<glyph unicode="&#x26;" horiz-adv-x="1451" d="M117 384q0 81 26 148.5t81 126t122.5 107t168.5 105.5q-46 58 -81 112q-69 104 -69 210q0 132 82 215t223 83q50 0 99.5 -16.5t95 -49.5t74 -92t28.5 -135q0 -122 -67 -199q-24 -30 -65.5 -62.5t-69 -49.5t-75.5 -46q69 -88 385 -460q76 138 76 307q0 26 19 45t45 19 t45 -19t19 -45q0 -95 -28.5 -203t-91.5 -203q10 -11 47 -54.5t69 -81.5t52 -60q18 -18 18 -41q0 -25 -17.5 -41.5t-42.5 -16.5q-31 0 -46 22l-155 180q-88 -97 -215 -156.5t-260 -59.5q-134 0 -246.5 52.5t-179 147t-66.5 211.5zM240 384q0 -51 23 -103t66.5 -97t117 -73 t164.5 -28q107 0 214.5 53.5t183.5 142.5q-10 12 -113 133.5t-191.5 227t-117.5 141.5q-120 -66 -176 -107q-84 -63 -127.5 -130.5t-43.5 -159.5zM488 1192q0 -37 12 -74t21.5 -53t28.5 -44q36 -50 70 -91q104 62 147 100q22 19 35.5 34.5t27.5 50.5t14 77q0 56 -17 95 t-46 58t-57 27t-60 8q-85 0 -130.5 -50.5t-45.5 -137.5z" />
<glyph unicode="'" horiz-adv-x="340" d="M101 1414v50q0 24 17 40.5t41 16.5h22q25 0 42 -16.5t17 -40.5v-50l-24 -391q0 -17 -11 -28t-28 -11h-14q-15 0 -26.5 11.5t-11.5 27.5z" />
<glyph unicode="(" horiz-adv-x="746" d="M187 643q0 278 101.5 528t296.5 426q22 20 40 20q21 0 35.5 -14.5t14.5 -34.5t-17 -37q-162 -158 -252 -381.5t-91 -506.5q1 -284 91 -508t252 -381q17 -19 17 -37q0 -21 -14.5 -35t-35.5 -14q-20 0 -40 20q-186 166 -292 410.5t-106 544.5z" />
<glyph unicode=")" horiz-adv-x="746" d="M71 -283q0 16 16 37q162 156 252 380.5t91 508.5q-1 283 -91 507t-252 381q-16 18 -16 37q0 20 15 34.5t36 14.5q18 0 40 -20q195 -175 295.5 -425.5t100.5 -528.5q0 -301 -105 -545t-291 -410q-20 -20 -40 -20q-21 0 -36 14t-15 35z" />
<glyph unicode="*" horiz-adv-x="1006" d="M117 1137q0 23 15 38t38 14l265 -12l-144 222q-7 11 -7 25q0 24 16 39t37 15q32 0 46 -27l121 -234l120 234q17 27 47 27q22 0 37.5 -15.5t15.5 -38.5q0 -12 -8 -26l-143 -221l264 12q23 0 38 -15.5t15 -37.5t-15 -37.5t-37 -15.5l-266 13l144 -223q7 -10 7 -25 q0 -24 -15.5 -38.5t-37.5 -14.5q-32 0 -46 26l-120 235l-121 -234q-16 -27 -46 -27q-22 0 -38 14.5t-16 38.5q0 13 8 26l143 223l-264 -14q-22 0 -37 16t-16 38z" />
<glyph unicode="+" horiz-adv-x="1303" d="M137 722q0 21 14.5 36t36.5 15h383v422q0 22 16 38t39 16q22 0 38 -16t16 -38v-422h435q22 0 36.5 -15t14.5 -36q0 -22 -14.5 -37t-36.5 -15h-435v-422q0 -22 -16 -38t-38 -16q-23 0 -39 16t-16 38v422h-383q-22 0 -36.5 15t-14.5 37z" />
<glyph unicode="," horiz-adv-x="529" d="M143 -226q0 18 18 27q47 39 68 78t21 113l-9 6q-25 2 -42 20t-17 44v156q0 27 19.5 46.5t47.5 19.5h37q28 0 47 -19.5t19 -46.5v-166q0 -74 -16 -132t-43 -92.5t-52 -54.5t-52 -30q-6 -3 -12 -3q-13 0 -23.5 10t-10.5 24z" />
<glyph unicode="-" horiz-adv-x="855" d="M117 650q0 24 16.5 40.5t39.5 16.5h509q23 0 39.5 -16.5t16.5 -40.5t-16.5 -40t-39.5 -16h-509q-23 0 -39.5 16t-16.5 40z" />
<glyph unicode="." horiz-adv-x="526" d="M177 53v167q0 27 20 46.5t48 19.5h37q28 0 47.5 -19.5t19.5 -46.5v-167q0 -28 -19.5 -46.5t-47.5 -18.5h-37q-28 0 -48 19t-20 46z" />
<glyph unicode="/" horiz-adv-x="864" d="M36 -53q0 11 2 16l656 1614q14 36 49 36q21 0 36 -15t15 -35q0 -8 -6 -24l-656 -1612q-12 -30 -46 -30q-21 0 -35.5 15t-14.5 35z" />
<glyph unicode="0" horiz-adv-x="1353" d="M142 731q0 347 140.5 553t394.5 206q170 0 291.5 -95.5t182 -265t60.5 -398.5q0 -355 -139.5 -556.5t-394.5 -201.5q-254 0 -394.5 202t-140.5 556zM271 731q0 -301 107.5 -473t298.5 -172t298 172t107 473q0 192 -47.5 338t-140 228t-217.5 82t-217.5 -82t-140.5 -228 t-48 -338z" />
<glyph unicode="1" horiz-adv-x="787" d="M48 1132q0 26 17.5 43.5t44.5 19.5q244 74 274 230q4 22 20.5 37t39.5 15h20q25 0 43 -18t18 -44v-1366q0 -25 -18 -43t-43 -18q-26 0 -44 18t-18 43v1003q0 112 7 220q-86 -132 -235 -193q-32 -12 -60 -12t-47 18.5t-19 46.5z" />
<glyph unicode="2" horiz-adv-x="1222" d="M106 59q5 100 38 185.5t80.5 146.5t116.5 113.5t133 86t142 65.5q350 138 350 400q0 59 -21 115.5t-60 103.5t-102 75.5t-139 28.5q-89 0 -161 -29.5t-117.5 -79t-70 -112t-25.5 -132.5q-2 -27 -20 -45t-45 -18t-46 18.5t-19 45.5q1 138 70.5 245t182 163t246.5 56 q195 0 325.5 -127t130.5 -318q0 -160 -110.5 -284t-310.5 -203q-117 -47 -202 -99.5t-143 -134.5q-73 -97 -89 -213h261h540q22 0 39 -16.5t17 -40.5q0 -23 -16.5 -39t-39.5 -16h-876q-24 0 -41.5 17.5t-17.5 41.5z" />
<glyph unicode="3" horiz-adv-x="1245" d="M106 412q0 27 18.5 45t45.5 18q26 0 43.5 -17.5t19.5 -43.5q5 -140 113 -235.5t288 -95.5q173 0 269 93.5t96 227.5q0 145 -107 223.5t-299 77.5q-23 0 -39 15.5t-16 38.5q0 24 15.5 40t38.5 16q355 -1 355 266q0 129 -83.5 214.5t-236.5 85.5q-156 0 -248.5 -87.5 t-98.5 -219.5q-1 -27 -19.5 -45t-45.5 -18t-45 18.5t-18 45.5q1 77 33 150t89.5 133t149.5 96.5t203 36.5q194 0 320.5 -113t126.5 -297q0 -119 -60 -201.5t-181 -117.5q142 -40 217.5 -130.5t75.5 -218.5q0 -197 -139.5 -318.5t-354.5 -121.5q-102 0 -189 26.5t-148 70.5 t-104.5 101t-64 118.5t-20.5 122.5z" />
<glyph unicode="4" horiz-adv-x="1218" d="M36 406q0 20 11 34l702 1007q18 30 53 30h65q25 0 43.5 -18.5t18.5 -43.5v-953h163q24 0 40 -15.5t16 -40.5q0 -22 -16.5 -39.5t-39.5 -17.5h-163v-299q0 -26 -18 -44t-44 -18t-43.5 18t-17.5 44v299h-715q-22 0 -38.5 17.5t-16.5 39.5zM191 460q108 2 315 2h300v513 q0 236 3 367q-82 -124 -222 -323l-184 -260q-150 -215 -212 -299z" />
<glyph unicode="5" horiz-adv-x="1190" d="M96 356q0 26 19 44.5t46 18.5q25 0 43 -17.5t20 -42.5q12 -120 115 -200t241 -80q179 0 274 108t95 292q0 75 -21.5 143.5t-63.5 124t-111.5 88.5t-157.5 33q-210 0 -335 -166q-18 -25 -51 -25q-26 0 -44.5 18t-17.5 46l97 675q3 20 18 34t39 14h642q23 0 39 -16t16 -39 q0 -24 -16 -39.5t-39 -15.5h-597q-44 -311 -75 -508q121 132 331 132q144 0 253 -68t165 -181.5t56 -253.5q0 -100 -31 -189t-91 -159.5t-156.5 -112t-218.5 -41.5q-111 0 -204.5 36t-151.5 93.5t-91 123.5t-36 130z" />
<glyph unicode="6" horiz-adv-x="1277" d="M142 734q0 110 16.5 212.5t56 203t100 175t155 120.5t213.5 47q87 0 161.5 -26.5t121 -66t79.5 -87t46.5 -88t13.5 -69.5q0 -26 -18.5 -44t-44.5 -18q-24 0 -41 14.5t-21 38.5q-8 43 -26.5 81.5t-51 74.5t-88 57.5t-126.5 21.5q-78 0 -142.5 -27t-107 -73.5t-75.5 -108 t-49.5 -131.5t-27.5 -143.5t-9.5 -144t3.5 -133.5q39 157 144.5 241.5t248.5 84.5q129 0 235 -56.5t172 -169.5t66 -263q0 -216 -134.5 -350t-336.5 -134q-261 0 -397 191t-136 570zM307 434q0 -145 97.5 -247t264.5 -102q160 0 258 102.5t98 269.5q0 166 -99.5 272.5 t-251.5 106.5q-158 0 -262.5 -110.5t-104.5 -291.5z" />
<glyph unicode="7" horiz-adv-x="1125" d="M84 1408q0 23 16 39.5t39 16.5h837q23 0 39.5 -16.5t16.5 -39.5q0 -24 -21 -45q-19 -19 -48 -52.5t-82 -106t-104 -153.5t-107 -196.5t-98 -235t-70 -268.5t-29 -297q0 -28 -18 -47t-44 -19q-29 0 -48 18.5t-19 47.5q5 532 332 1050q107 168 192 250q-109 -2 -298 -2 h-431q-23 0 -39 16.5t-16 39.5z" />
<glyph unicode="8" horiz-adv-x="1256" d="M119 401q0 150 81.5 247.5t220.5 136.5q-109 41 -172.5 126t-63.5 202q0 166 128 271.5t316 105.5q116 0 217 -46.5t163.5 -134t62.5 -196.5q0 -118 -64.5 -203t-174.5 -126q139 -40 222 -137.5t83 -245.5q0 -199 -143.5 -313.5t-366.5 -114.5t-366 114.5t-143 313.5z M249 401q0 -149 106 -235.5t273 -86.5t274 87t107 235q0 155 -108 243t-273 88q-168 0 -273.5 -87.5t-105.5 -243.5zM312 1113q0 -131 87 -207t230 -76t230 76t87 207q0 120 -89.5 196.5t-227.5 76.5q-141 0 -229 -76.5t-88 -196.5z" />
<glyph unicode="9" horiz-adv-x="1277" d="M132 1008q0 215 134.5 349t336.5 134q261 0 397 -191t136 -570q0 -110 -16.5 -212.5t-56 -203t-100 -175t-155 -120.5t-213.5 -47q-87 0 -161.5 26.5t-121 66t-79.5 87t-46.5 88t-13.5 69.5q0 26 18.5 44.5t44.5 18.5q24 0 41 -15t21 -39q8 -43 26.5 -81.5t51 -74.5 t88 -57.5t126.5 -21.5q78 0 142.5 27t107 73.5t75.5 108.5t49.5 131.5t27.5 143.5t9.5 144.5t-3.5 133.5q-39 -157 -144.5 -242t-248.5 -85q-96 0 -181.5 33.5t-150.5 95t-103 155t-38 206.5zM253 1008q0 -166 99.5 -272.5t251.5 -106.5q159 0 263 110t104 291 q0 145 -97.5 247t-264.5 102q-160 0 -258 -102t-98 -269z" />
<glyph unicode=":" horiz-adv-x="526" d="M177 53v167q0 27 20 46.5t48 19.5h37q28 0 47.5 -19.5t19.5 -46.5v-167q0 -28 -19.5 -46.5t-47.5 -18.5h-37q-28 0 -48 19t-20 46zM177 766v167q0 27 20 46t48 19h37q28 0 47.5 -19t19.5 -46v-167q0 -28 -19.5 -47t-47.5 -19h-37q-28 0 -48 19t-20 47z" />
<glyph unicode=";" horiz-adv-x="533" d="M143 -226q0 18 18 27q47 39 68 78t21 113l-9 6q-25 2 -42 20t-17 44v156q0 27 19.5 46.5t47.5 19.5h37q28 0 47 -19.5t19 -46.5v-166q0 -74 -16 -132t-43 -92.5t-52 -54.5t-52 -30q-6 -3 -12 -3q-13 0 -23.5 10t-10.5 24zM176 766v167q0 27 20 46t48 19h36q28 0 47.5 -19 t19.5 -46v-167q0 -28 -19.5 -47t-47.5 -19h-36q-28 0 -48 19t-20 47z" />
<glyph unicode="&#x3c;" horiz-adv-x="1221" d="M117 669q0 28 23 41l835 426q14 7 26 7q23 0 39.5 -16.5t16.5 -39.5q0 -34 -32 -50l-429 -211q-191 -96 -340 -157q94 -39 340 -158l428 -212q33 -15 33 -51q0 -23 -16.5 -39t-39.5 -16q-12 0 -26 7l-833 426q-25 12 -25 43z" />
<glyph unicode="=" horiz-adv-x="1306" d="M177 488q0 19 15 34.5t36 15.5h849q20 0 35.5 -15t15.5 -35q0 -22 -15 -37t-36 -15h-849q-22 0 -36.5 15t-14.5 37zM177 903q0 19 15 34t36 15h849q20 0 35.5 -15t15.5 -34q0 -22 -15 -37t-36 -15h-849q-21 0 -36 15.5t-15 36.5z" />
<glyph unicode="&#x3e;" horiz-adv-x="1221" d="M165 248q0 36 33 51l429 212q220 108 340 158q-127 52 -341 157l-428 211q-33 16 -33 50q0 23 16 39.5t39 16.5q13 0 27 -7l835 -426q23 -14 23 -41q0 -30 -26 -43l-832 -426q-14 -7 -27 -7q-23 0 -39 16t-16 39z" />
<glyph unicode="?" horiz-adv-x="1173" d="M117 1107q2 80 34 155t90.5 137t153.5 99t212 37q90 0 170.5 -26.5t143 -76.5t99.5 -128.5t37 -175.5q0 -35 -6 -67t-13 -55t-25 -49t-27.5 -40t-35.5 -37t-35 -30.5t-40 -30.5t-37 -28q-39 -31 -59 -48t-47 -47t-39 -58t-21.5 -70.5t-9.5 -95.5q0 -28 -21 -47t-51 -19 q-28 0 -47 19t-19 47q0 81 17 145t50 110.5t63.5 75.5t77.5 62q12 9 45.5 32t47 33.5t37 34t34 43.5t19 51t8.5 67q0 133 -85.5 213.5t-233.5 80.5q-161 0 -252 -88.5t-101 -225.5q0 -28 -19.5 -47.5t-48.5 -19.5q-28 0 -47 19.5t-19 48.5zM513 53v120q0 27 20 47t48 20h25 q28 0 48 -20t20 -47v-120q0 -28 -19.5 -46.5t-48.5 -18.5h-25q-28 0 -48 19t-20 46z" />
<glyph unicode="@" horiz-adv-x="2008" d="M124 564q0 49 4 90q18 193 99 358t207.5 280t293 179.5t351.5 64.5q233 0 416.5 -99t286 -277.5t102.5 -406.5q0 -41 -3 -86q-11 -117 -50.5 -206.5t-97 -141.5t-123.5 -77.5t-139 -25.5q-89 0 -149.5 42.5t-73.5 119.5q-5 16 -7 37q-50 -92 -136 -146.5t-189 -54.5 q-145 0 -240 102t-95 278q0 38 2 56q20 200 134.5 320.5t274.5 120.5q97 0 166.5 -46.5t95.5 -128.5q7 74 18 133q17 29 52 29q25 0 42.5 -17.5t17.5 -41.5q0 -2 -0.5 -5t-1 -8t-0.5 -10l-43 -471q-3 -21 -3 -35q-2 -43 7.5 -76t25 -51t37.5 -29.5t40.5 -15t37.5 -3.5 q102 0 182 88.5t97 264.5q4 35 4 77q0 195 -84.5 352t-244.5 248.5t-367 91.5q-215 0 -397.5 -102t-295.5 -281t-132 -398q-4 -36 -4 -79q0 -202 82 -359t247.5 -249.5t393.5 -92.5q252 0 439 123q12 7 24 7q23 0 40 -15.5t17 -41.5q0 -35 -36 -51q-72 -55 -206 -88.5 t-289 -33.5q-186 0 -341 57t-262.5 159.5t-167 249.5t-59.5 322zM705 602q0 -127 62 -202t174 -75q122 0 201 89.5t91 236.5q2 28 2 47q0 128 -66.5 206t-175.5 78q-120 0 -197 -91.5t-89 -239.5q-2 -30 -2 -49z" />
<glyph unicode="A" horiz-adv-x="1386" d="M43 49q0 4 3 19l568 1401q17 45 59 45h38q46 0 58 -41l571 -1405q3 -7 3 -19q0 -27 -17.5 -44t-42.5 -17q-41 0 -58 38l-179 449h-706l-178 -448q-16 -39 -58 -39q-26 0 -43.5 17.5t-17.5 43.5zM385 592h615l-187 474q-89 233 -121 328q-52 -155 -122 -334z" />
<glyph unicode="B" horiz-adv-x="1477" d="M213 63v1382q0 27 18 45t45 18h578q194 0 312.5 -97t118.5 -287q0 -126 -60 -216.5t-157 -116.5q45 -12 89.5 -37t89 -66.5t72 -108t27.5 -146.5q0 -98 -29.5 -175.5t-76 -125t-109.5 -78t-124 -42.5t-126 -12h-605q-27 0 -45 18t-18 45zM341 115h520q73 0 133.5 17 t110.5 52t78 97.5t28 146.5q0 150 -95.5 229.5t-244.5 79.5h-530v-622zM341 846h543q266 0 266 277q0 77 -27 132t-73 84t-96.5 42t-107.5 13h-505v-548z" />
<glyph unicode="C" horiz-adv-x="1524" d="M124 751q0 176 50 322.5t140.5 248.5t220 158t285.5 56q117 0 216.5 -32t162.5 -79.5t109.5 -106.5t67.5 -109t26 -91q0 -29 -20 -48.5t-48 -19.5q-24 0 -42 14t-23 36q-38 147 -153.5 234t-299.5 87q-249 0 -403 -180.5t-154 -491.5q0 -196 66.5 -345.5t193 -233 t295.5 -83.5q127 0 226 43.5t168.5 141t93.5 242.5q3 25 22 41.5t45 16.5q28 0 47.5 -19t19.5 -47q-1 -22 -7.5 -57t-26 -86.5t-48 -103t-78.5 -104.5t-112 -93t-153 -65t-198 -25q-141 0 -264.5 50.5t-218.5 145.5t-150.5 245.5t-55.5 337.5z" />
<glyph unicode="D" horiz-adv-x="1546" d="M213 63v1382q0 27 18 45t45 18h488q140 0 252 -40.5t186.5 -110t125 -166.5t72.5 -206.5t22 -233.5q0 -357 -173.5 -554t-497.5 -197h-475q-27 0 -45 18t-18 45zM341 114h411q121 0 215 35.5t153.5 94.5t98 142.5t54 172.5t15.5 191q0 99 -14.5 186.5t-51 173.5t-94 147 t-150 99t-211.5 38h-426v-1280z" />
<glyph unicode="E" horiz-adv-x="1355" d="M213 65v1380q0 26 19 44.5t46 18.5h891q23 0 40.5 -17.5t17.5 -40.5q0 -24 -17 -40.5t-41 -16.5h-828v-577h746q24 0 41.5 -17t17.5 -41t-17.5 -41t-41.5 -17h-746v-584h850q24 0 41 -17.5t17 -40.5q0 -25 -17 -41.5t-41 -16.5h-913q-27 0 -46 19t-19 46z" />
<glyph unicode="F" horiz-adv-x="1282" d="M213 52v1393q0 26 19 44.5t46 18.5h862q24 0 41 -17.5t17 -40.5q0 -24 -17 -40.5t-41 -16.5h-799v-597h681q24 0 41 -17.5t17 -41.5q0 -25 -17 -41.5t-41 -16.5h-681v-627q0 -27 -18 -45.5t-45 -18.5t-46 18.5t-19 45.5z" />
<glyph unicode="G" horiz-adv-x="1640" d="M124 740q0 174 51.5 319t144.5 245t225 155t290 55q122 0 223.5 -31.5t164.5 -77.5t108.5 -104.5t65.5 -107t26 -90.5q0 -29 -19 -49t-47 -20q-25 0 -43 13.5t-23 36.5q-39 153 -159.5 234.5t-302.5 81.5q-123 0 -227.5 -45t-180.5 -128.5t-119 -209t-43 -279.5 q0 -292 150 -471.5t406 -179.5q172 0 298.5 84t216.5 271v227h-487q-25 0 -42 17t-17 41q0 23 17 40t42 17h552q23 0 40 -17t17 -41v-677q0 -26 -17.5 -43.5t-42.5 -17.5q-26 0 -44 18t-18 43v227q-37 -64 -83.5 -116t-109.5 -95.5t-146 -68t-178 -24.5q-140 0 -264 50 t-219 144t-150.5 242t-55.5 332z" />
<glyph unicode="H" horiz-adv-x="1547" d="M213 52v1405q0 26 19 45t46 19t45 -18.5t18 -45.5v-629h865v629q0 26 18.5 45t45.5 19t45.5 -19t18.5 -45v-1405q0 -27 -18.5 -45.5t-45.5 -18.5t-45.5 18.5t-18.5 45.5v661h-865v-661q0 -27 -18 -45.5t-45 -18.5t-46 18.5t-19 45.5z" />
<glyph unicode="I" horiz-adv-x="553" d="M213 52v1405q0 26 19 45t46 19t45 -18.5t18 -45.5v-1405q0 -27 -18 -45.5t-45 -18.5t-46 18.5t-19 45.5z" />
<glyph unicode="J" horiz-adv-x="1095" d="M60 468q0 27 19 45.5t46 18.5t45 -18.5t18 -45.5q0 -71 12.5 -133.5t42.5 -122t90 -94.5t144 -35q153 0 226.5 102.5t73.5 284.5v987q0 26 18.5 45t45.5 19t45.5 -19t18.5 -45v-991q0 -220 -113 -357t-312 -137q-93 0 -167.5 31t-120.5 81t-76.5 116.5t-43 132.5 t-12.5 135z" />
<glyph unicode="K" horiz-adv-x="1416" d="M213 52v1405q0 26 19 45t46 19t45 -18.5t18 -45.5v-814l859 860q20 18 42 18q26 0 44.5 -18t18.5 -44t-19 -43l-547 -542l606 -789q11 -16 11 -35q0 -26 -18 -44t-44 -18q-31 0 -49 24l-588 781l-316 -314v-427q0 -27 -18 -45.5t-45 -18.5t-46 18.5t-19 45.5z" />
<glyph unicode="L" horiz-adv-x="1199" d="M213 58v1392q0 27 19 45.5t46 18.5t45 -18.5t18 -45.5v-1334h752q24 0 41 -17.5t17 -40.5q0 -25 -17 -41.5t-41 -16.5h-822q-24 0 -41 16.5t-17 41.5z" />
<glyph unicode="M" horiz-adv-x="1812" d="M213 52v1398q0 27 19 45.5t46 18.5h68q42 0 56 -38l373 -958q84 -219 131 -350q40 113 132 349l372 959q14 38 56 38h70q27 0 45 -18.5t18 -45.5v-1398q0 -27 -18 -45.5t-45 -18.5t-46 18.5t-19 45.5v904q0 187 4 366q-45 -125 -129 -341l-373 -954q-15 -39 -57 -39h-19 q-42 0 -57 39l-373 955q-89 228 -129 340q3 -134 3 -367v-903q0 -27 -18 -45.5t-45 -18.5t-46 18.5t-19 45.5z" />
<glyph unicode="N" horiz-adv-x="1557" d="M213 52v1398q0 27 19 45.5t46 18.5h33q36 0 54 -26l651 -974q124 -186 206 -316q-5 128 -5 352v907q0 26 18.5 45t44.5 19q27 0 46 -19t19 -45v-1399q0 -27 -19 -45.5t-46 -18.5h-30q-35 0 -54 29l-644 963q-121 178 -216 334q5 -133 5 -365v-903q0 -27 -18 -45.5 t-45 -18.5t-46 18.5t-19 45.5z" />
<glyph unicode="O" d="M124 753q0 228 91 407t249.5 277t354.5 98q147 0 276 -57.5t221.5 -159t146 -248t53.5 -317.5q0 -226 -92.5 -405.5t-251 -277.5t-353.5 -98q-194 0 -352.5 98t-250.5 277.5t-92 405.5zM259 753q0 -291 159 -477.5t401 -186.5q160 0 288 84t201 236t73 344 q0 195 -73 347.5t-201 236t-288 83.5q-159 0 -286.5 -83.5t-200.5 -236t-73 -347.5z" />
<glyph unicode="P" horiz-adv-x="1358" d="M213 52v1393q0 26 18 44.5t45 18.5h539q113 0 203 -34.5t146 -94t85.5 -137.5t29.5 -169q0 -204 -122 -321t-363 -117h-453v-583q0 -27 -18 -45.5t-45 -18.5q-28 0 -46.5 18.5t-18.5 45.5zM341 750h453q98 0 167.5 23.5t108.5 68t56.5 100t17.5 127.5q0 156 -85.5 240.5 t-250.5 84.5h-467v-644z" />
<glyph unicode="Q" d="M124 753q0 228 91 407t249.5 277t354.5 98q147 0 276 -57.5t221.5 -159t146 -248t53.5 -317.5q0 -164 -49.5 -304.5t-139.5 -245.5l132 -133q18 -20 18 -43q0 -25 -18.5 -43t-43.5 -18q-23 0 -43 18l-133 134q-182 -146 -420 -146q-194 0 -352.5 98t-250.5 277.5 t-92 405.5zM259 753q0 -291 159 -477.5t401 -186.5q189 0 333 117l-193 194q-18 20 -18 43q0 26 18 44t43 18t45 -20l190 -191q144 182 144 459q0 195 -73 347.5t-201 236t-288 83.5q-159 0 -286.5 -83.5t-200.5 -236t-73 -347.5z" />
<glyph unicode="R" horiz-adv-x="1437" d="M213 52v1393q0 26 18 44.5t45 18.5h553q229 0 345.5 -110t116.5 -308q0 -126 -64.5 -221t-194.5 -139q74 -17 126 -83t70 -157q14 -54 25.5 -193.5t35.5 -218.5q4 -9 4 -23q0 -29 -18.5 -48t-46.5 -19q-24 0 -42 13t-23 35q-6 16 -10.5 32.5t-8.5 37t-7 35t-5.5 40 t-4 37.5t-3 41t-2 37.5t-2.5 41t-2 37.5q-6 142 -76 219.5t-177 80.5h-524v-623q0 -27 -18 -45.5t-45 -18.5q-28 0 -46.5 18.5t-18.5 45.5zM341 783h533q145 0 215.5 82.5t70.5 225.5q0 72 -20 126.5t-52 87.5t-77 53.5t-89.5 28t-96.5 7.5h-484v-611z" />
<glyph unicode="S" horiz-adv-x="1380" d="M114 447q0 27 19.5 46.5t48.5 19.5q26 0 45.5 -18.5t20.5 -43.5q24 -183 151.5 -275.5t318.5 -92.5q121 0 214 35t151.5 114t58.5 194q0 58 -15 102t-37 71.5t-61 48t-73.5 31t-87.5 21.5q-186 38 -261 52q-89 17 -150 33.5t-121 45.5t-95.5 66.5t-57.5 94.5t-22 132 q0 191 145 301.5t377 110.5q108 0 198 -26t149 -67.5t101.5 -95.5t63 -106t24.5 -103q0 -28 -19.5 -48t-47.5 -20q-26 0 -45 15t-23 40q-29 148 -134.5 223.5t-267.5 75.5q-76 0 -143 -17t-122.5 -51.5t-88 -94t-32.5 -137.5q0 -60 16 -101t51 -67.5t74 -41t103 -29.5 q94 -23 341 -67q40 -8 70.5 -15.5t74 -23t75.5 -34t67 -49t57 -67t36.5 -89t14.5 -114.5q0 -144 -75 -248.5t-198.5 -155t-280.5 -50.5q-138 0 -251.5 38t-188.5 103.5t-118 151t-50 182.5z" />
<glyph unicode="T" horiz-adv-x="1239" d="M36 1450q0 24 16.5 41t40.5 17h1053q23 0 40 -17.5t17 -40.5q0 -24 -17 -40.5t-40 -16.5h-463v-1341q0 -27 -18 -45.5t-45 -18.5t-46 18.5t-19 45.5v1341h-462q-24 0 -40.5 16.5t-16.5 40.5z" />
<glyph unicode="U" horiz-adv-x="1488" d="M190 487v970q0 26 18.5 45t45.5 19t45.5 -19t18.5 -45v-972q0 -191 102 -296.5t323 -105.5q112 0 195 28t133.5 82t74.5 126.5t24 165.5v972q0 26 19 45t46 19q26 0 44.5 -19t18.5 -45v-970q0 -78 -17 -149t-58 -139t-103 -117.5t-159 -79.5t-218 -30t-217.5 30 t-158 79.5t-102.5 117.5t-58 139t-17 149z" />
<glyph unicode="V" horiz-adv-x="1366" d="M81 1458q0 25 18 44t45 19q19 0 36.5 -11.5t24.5 -30.5l332 -931q129 -374 146 -427q28 86 146 428l332 929q14 43 61 43q26 0 44.5 -18.5t18.5 -45.5q0 -10 -4 -21l-509 -1399q-6 -19 -23 -31t-37 -12h-57q-20 0 -37 12t-24 31l-509 1399q-4 12 -4 22z" />
<glyph unicode="W" horiz-adv-x="2027" d="M81 1455q0 27 18.5 46.5t47.5 19.5q22 0 39.5 -13t22.5 -35l258 -923q42 -150 103 -387q38 147 105 384l259 927q13 47 62 47h35q22 0 39.5 -12.5t22.5 -34.5l259 -924q60 -216 104 -387q32 122 105 387l258 923q5 22 22 35t39 13q30 0 48.5 -19.5t18.5 -46.5 q0 -9 -3 -21l-404 -1392q-6 -22 -23 -35t-39 -13h-42q-23 0 -40.5 13t-22.5 35l-258 915q-56 198 -101 371q-51 -198 -102 -373l-258 -913q-6 -22 -23 -35t-40 -13h-41q-23 0 -40 13t-23 35l-403 1392q0 3 -1.5 10.5t-1.5 10.5z" />
<glyph unicode="X" horiz-adv-x="1338" d="M94 48q0 22 11 37l489 690l-463 647q-12 15 -12 37q0 27 18.5 44.5t41.5 17.5q32 0 51 -27l441 -631l439 631q17 27 49 27q25 0 43.5 -18t18.5 -44q0 -21 -13 -37l-463 -647l488 -690q11 -15 11 -36q0 -26 -18 -43.5t-43 -17.5q-30 0 -50 26l-462 672l-465 -672 q-18 -26 -50 -26q-25 0 -43.5 17t-18.5 43z" />
<glyph unicode="Y" horiz-adv-x="1288" d="M79 1457q0 28 18.5 46t44.5 18q36 0 54 -30l448 -735l449 735q18 30 54 30q25 0 43.5 -18.5t18.5 -45.5q0 -19 -10 -36l-491 -778v-591q0 -27 -18.5 -45.5t-45.5 -18.5t-45.5 18.5t-18.5 45.5v591l-491 778q-10 17 -10 36z" />
<glyph unicode="Z" horiz-adv-x="1359" d="M84 74q0 27 16 46l787 1037q129 171 188 238q-117 -2 -331 -2h-536q-24 0 -41 16.5t-17 40.5q0 23 17 40.5t41 17.5h955q29 -1 50 -22t21 -52q0 -29 -17 -48l-771 -1015q-155 -203 -199 -256q113 1 338 1h598q23 0 40.5 -17.5t17.5 -40.5q0 -24 -17 -41t-41 -17h-1025 q-31 0 -52.5 22t-21.5 52z" />
<glyph unicode="[" horiz-adv-x="708" d="M223 -241v1768q0 25 18 43t44 18l276 -1q20 0 35.5 -15t15.5 -36t-15 -36t-36 -15h-216v-1685h216q20 0 35.5 -15t15.5 -36t-15 -36t-36 -15h-276q-26 0 -44 17.5t-18 43.5z" />
<glyph unicode="\" horiz-adv-x="829" d="M54 1563q0 20 15 35t36 15q35 0 49 -36l656 -1614q3 -7 3 -16q0 -20 -15 -35t-35 -15q-34 0 -47 30l-656 1612q-6 16 -6 24z" />
<glyph unicode="]" horiz-adv-x="708" d="M96 -251q0 21 15 36t36 15h215v1685h-215q-21 0 -36 14.5t-15 36.5q0 21 15 36t36 15l277 1q26 0 43.5 -18t17.5 -43v-1768q0 -26 -17.5 -43.5t-43.5 -17.5h-277q-21 0 -36 14.5t-15 36.5z" />
<glyph unicode="^" horiz-adv-x="843" d="M36 861q0 18 9 30l337 619q14 25 42 25q29 0 43 -27l333 -618q8 -13 8 -29q0 -23 -16 -39t-39 -16q-36 0 -52 33l-165 327q-68 129 -113 239q-32 -81 -114 -241l-168 -326q-16 -32 -50 -32q-23 0 -39 16t-16 39z" />
<glyph unicode="_" horiz-adv-x="828" d="M-15 -283q0 20 13.5 34.5t32.5 14.5h766q19 0 33 -14.5t14 -34.5q0 -19 -14 -33t-33 -14h-766q-19 0 -32.5 14t-13.5 33z" />
<glyph unicode="`" horiz-adv-x="1024" d="M353 1556q0 26 18.5 44.5t43.5 18.5q36 0 54 -32l187 -300q7 -14 7 -24q0 -20 -14 -34t-33 -14q-21 0 -37 20l-212 285q-14 18 -14 36z" />
<glyph unicode="a" horiz-adv-x="1172" d="M106 293q0 139 93 219q53 44 133.5 67.5t216.5 41.5q9 1 35.5 4.5t41 5t41 5.5t42.5 8t38.5 9.5t36.5 12t29 15t23.5 18.5t12.5 22q11 31 11 74q0 90 -65 150t-198 60q-278 0 -318 -207q-4 -23 -20.5 -38t-40.5 -15q-26 0 -44 18t-18 45q5 51 34.5 107.5t79.5 98.5 q119 101 325 101q215 0 320 -120q68 -78 68 -205l1 -589q0 -22 1.5 -35t7.5 -27.5t19.5 -21.5t35.5 -7q23 -2 38 -19.5t15 -41.5q0 -26 -17.5 -43.5t-44.5 -17.5q-58 0 -105 29q-35 24 -49 68t-17 113q-63 -110 -165 -167.5t-230 -57.5q-163 0 -265 86t-102 234zM229 301 q0 -217 253 -217q155 0 266.5 97.5t111.5 227.5v188q-80 -43 -250 -71q-26 -5 -82 -12.5t-88.5 -13t-78 -20.5t-70.5 -35.5t-43.5 -57t-18.5 -86.5z" />
<glyph unicode="b" horiz-adv-x="1254" d="M187 49v1411q0 25 18.5 43t43.5 18t42.5 -18t17.5 -43v-594q49 119 147 184t220 65q211 0 340.5 -158.5t129.5 -413.5q0 -257 -134 -413.5t-345 -156.5q-116 0 -212 67t-146 181v-172q0 -26 -17.5 -43.5t-42.5 -17.5q-26 0 -44 18t-18 43zM308 539q0 -198 97.5 -326.5 t258.5 -128.5q168 0 263 127t95 332q0 133 -39.5 236.5t-121 165t-194.5 61.5q-154 0 -256.5 -125t-102.5 -342z" />
<glyph unicode="c" horiz-adv-x="1134" d="M110 532q0 270 130.5 426.5t361.5 156.5q83 0 155 -25t118.5 -61t82 -81t52 -80.5t23.5 -64.5q0 -28 -18.5 -47t-45.5 -19q-45 0 -62 45q-40 107 -119.5 164.5t-186.5 57.5q-182 0 -277 -126q-93 -123 -93 -331v-9q2 -211 97 -333t277 -122q110 0 191.5 64.5t121.5 181.5 q13 41 59 41q27 0 45 -19t18 -46q-2 -28 -19.5 -68t-54.5 -86.5t-86 -86t-121.5 -65.5t-153.5 -26q-102 0 -185 30t-140 82t-96 123.5t-56.5 152.5t-17.5 171z" />
<glyph unicode="d" horiz-adv-x="1254" d="M110 543q0 255 129 413.5t340 158.5q121 0 219 -64.5t147 -182.5v592q0 25 18.5 43t43.5 18t42.5 -18t17.5 -43v-1411q0 -25 -17.5 -43t-42.5 -18q-26 0 -44 18t-18 43v170q-50 -113 -145.5 -179.5t-210.5 -66.5q-212 0 -345.5 156t-133.5 414zM232 543q0 -205 95.5 -332 t264.5 -127q160 0 257 128.5t97 326.5q0 217 -101.5 342t-255.5 125q-169 0 -263 -129t-94 -334z" />
<glyph unicode="e" horiz-adv-x="1188" d="M110 553q0 84 17 163t55 152.5t94 127.5t139 86.5t185 32.5q92 0 175.5 -34.5t152 -101t109.5 -176t42 -246.5q0 -22 -14.5 -36.5t-35.5 -14.5h-796q21 -427 378 -427q61 0 113.5 17.5t86.5 42.5t61 58.5t40.5 60t22.5 52.5q5 21 21.5 33.5t38.5 12.5q25 0 43 -17.5 t18 -42.5q0 -19 -13.5 -54t-47.5 -82t-82.5 -88.5t-128 -70t-173.5 -28.5q-240 0 -370.5 151t-130.5 429zM233 605h721q-12 194 -110 299t-246 106h-3q-160 0 -255 -110q-96 -110 -107 -295z" />
<glyph unicode="f" horiz-adv-x="735" d="M63 1036q0 21 15.5 37t37.5 16h149v180q0 131 72 198.5t187 67.5q86 0 158 -29q35 -14 35 -54q0 -34 -25 -50t-52 -8q-96 30 -124 30q-129 -2 -129 -150v-185h237q21 0 36 -16t15 -37q0 -22 -15 -37t-36 -15h-237v-935q0 -25 -18 -43t-42 -18q-26 0 -44 18t-18 43v935 h-149q-22 0 -37.5 15t-15.5 37z" />
<glyph unicode="g" horiz-adv-x="1255" d="M110 569q0 250 132 398t350 148q119 0 212.5 -62.5t141.5 -178.5v165q0 25 18 43t43 18t42.5 -18t17.5 -43v-1013q0 -103 -36.5 -184.5t-99 -132t-142.5 -77t-171 -26.5q-325 0 -439 237q-14 29 -16 64q0 25 17.5 42.5t42.5 17.5q44 0 58 -39q54 -217 336 -217 q81 0 143 23t96.5 57.5t55.5 83t27.5 90.5t6.5 88v220q-50 -115 -147.5 -181t-218.5 -66q-206 0 -338 151.5t-132 391.5zM232 569q0 -125 41 -224t123.5 -158.5t195.5 -59.5q155 0 255 127t100 313q0 213 -99 328.5t-260 115.5q-167 0 -261.5 -120.5t-94.5 -321.5z" />
<glyph unicode="h" horiz-adv-x="1226" d="M187 49v1411q0 25 18.5 43t43.5 18t42.5 -18.5t17.5 -42.5v-564q22 39 52 73.5t76 69.5t112 55.5t143 20.5q163 0 261.5 -95t98.5 -270v-701q0 -25 -18 -43t-43 -18t-43 18t-18 43v694q0 122 -61 192t-189 70q-75 0 -138.5 -22.5t-105 -58t-71.5 -79.5t-43 -86t-13 -78 v-632q0 -26 -17.5 -43.5t-42.5 -17.5q-26 0 -44 18t-18 43z" />
<glyph unicode="i" horiz-adv-x="497" d="M181 1356v93q0 23 17.5 39.5t40.5 16.5h20q23 0 40 -16.5t17 -39.5v-93q0 -23 -17 -39.5t-40 -16.5h-20q-23 0 -40.5 16.5t-17.5 39.5zM187 49v990q0 25 18.5 43.5t43.5 18.5t42.5 -18t17.5 -44v-990q0 -26 -17.5 -43.5t-42.5 -17.5q-26 0 -44 18t-18 43z" />
<glyph unicode="j" horiz-adv-x="496" d="M-9 -302q0 25 17.5 42.5t43.5 17.5q33 -2 57 0.5t38.5 12.5t23 19.5t12 29.5t4 33t0.5 41v5v1140q0 26 18 44t44 18q25 0 42 -18t17 -44v-1167q0 -56 -15.5 -99t-39.5 -68.5t-59 -41.5t-69 -21.5t-73 -5.5q-26 0 -43.5 18t-17.5 44zM180 1356v93q0 23 17.5 39.5 t40.5 16.5h20q23 0 40 -16.5t17 -39.5v-93q0 -23 -17 -39.5t-40 -16.5h-20q-23 0 -40.5 16.5t-17.5 39.5z" />
<glyph unicode="k" horiz-adv-x="1137" d="M187 49v1411q0 25 18.5 43t43.5 18t42.5 -18t17.5 -43v-976l598 599q18 18 40 18q25 0 42 -18t17 -41q0 -25 -20 -43l-342 -332l420 -589q10 -15 10 -33q0 -24 -17 -40.5t-39 -16.5q-32 0 -50 26l-404 577l-255 -250v-292q0 -26 -17.5 -43.5t-42.5 -17.5q-26 0 -44 18 t-18 43z" />
<glyph unicode="l" horiz-adv-x="497" d="M187 49v1411q0 25 18.5 43t43.5 18t42.5 -18.5t17.5 -42.5v-1411q0 -26 -17.5 -43.5t-42.5 -17.5q-26 0 -44 18t-18 43z" />
<glyph unicode="m" horiz-adv-x="1886" d="M187 49v990q0 25 18.5 43.5t43.5 18.5t42.5 -18t17.5 -44v-139q128 215 364 215q122 0 202 -60.5t112 -167.5q138 228 386 228q156 0 247 -93.5t91 -270.5v-702q0 -25 -17.5 -43t-42.5 -18q-26 0 -44 17.5t-18 43.5v699q0 260 -238 260q-70 0 -129 -23t-97 -58.5t-65 -80 t-38.5 -86.5t-11.5 -79v-632q0 -25 -17.5 -43t-42.5 -18q-26 0 -43.5 17.5t-17.5 43.5v699q0 260 -239 260q-70 0 -129 -23t-97 -58.5t-65 -80t-38.5 -86.5t-11.5 -79v-632q0 -26 -17.5 -43.5t-42.5 -17.5q-26 0 -44 18t-18 43z" />
<glyph unicode="n" horiz-adv-x="1226" d="M187 49v990q0 25 18.5 43.5t43.5 18.5t42.5 -18t17.5 -44v-143q22 39 52 73.5t76 69.5t112 55.5t143 20.5q163 0 261.5 -95t98.5 -270v-701q0 -25 -18 -43t-43 -18t-43 18t-18 43v694q0 122 -61 192t-189 70q-75 0 -138.5 -22.5t-105 -58t-71.5 -79.5t-43 -86t-13 -78 v-632q0 -26 -17.5 -43.5t-42.5 -17.5q-26 0 -44 18t-18 43z" />
<glyph unicode="o" horiz-adv-x="1202" d="M110 551q0 264 133.5 414t354.5 150q216 0 355.5 -151.5t139.5 -412.5q0 -267 -134.5 -422.5t-360.5 -155.5q-222 0 -355 156t-133 422zM231 551q0 -218 98 -342.5t269 -124.5q175 0 274 124.5t99 342.5q0 205 -102 329.5t-271 124.5q-170 0 -268.5 -124t-98.5 -330z" />
<glyph unicode="p" horiz-adv-x="1254" d="M187 -314v1353q0 25 18.5 43.5t43.5 18.5t42.5 -18t17.5 -44v-167q49 118 142.5 180.5t215.5 62.5q215 0 347 -155.5t132 -410.5q0 -257 -131.5 -416.5t-338.5 -159.5q-121 0 -218.5 67.5t-148.5 184.5v-539q0 -25 -17.5 -43t-42.5 -18t-43.5 18t-18.5 43zM308 549 q0 -203 100 -335t259 -132q111 0 192.5 62t122 166.5t40.5 238.5q0 205 -94 330t-264 125q-157 0 -256.5 -121.5t-99.5 -333.5z" />
<glyph unicode="q" horiz-adv-x="1242" d="M110 549q0 255 131.5 410.5t347.5 155.5q122 0 214.5 -62.5t141.5 -180.5v167q0 25 18.5 43.5t43.5 18.5t42.5 -18t17.5 -44v-1353q0 -25 -17.5 -43t-42.5 -18t-43.5 18t-18.5 43v539q-51 -117 -148 -184.5t-218 -67.5q-206 0 -337.5 160t-131.5 416zM232 549 q0 -205 95 -336t262 -131q158 0 257.5 132t99.5 335q0 212 -99 333.5t-255 121.5q-171 0 -265.5 -125.5t-94.5 -329.5z" />
<glyph unicode="r" horiz-adv-x="773" d="M187 49v990q0 25 18.5 43.5t43.5 18.5t42.5 -18t17.5 -44v-145q46 94 138.5 157.5t214.5 63.5q26 0 44.5 -18.5t18.5 -45.5t-18.5 -45.5t-44.5 -18.5h-9q-99 -1 -177 -43q-82 -44 -124.5 -114.5t-42.5 -150.5v-630q0 -26 -17.5 -43.5t-42.5 -17.5q-26 0 -44 18t-18 43z " />
<glyph unicode="s" horiz-adv-x="1063" d="M94 316q0 24 18 42t43 18q24 0 41.5 -16t19.5 -39q18 -120 107.5 -180.5t221.5 -60.5q44 0 83.5 5t82.5 20.5t74 40t51 66.5t20 97q0 44 -13 74.5t-43 49.5t-60.5 29.5t-85.5 23.5l-197 44q-59 12 -99 23t-87 33t-75 50t-47 72.5t-19 102.5q0 137 107.5 220.5t284.5 83.5 q87 0 159 -22t115.5 -54.5t74.5 -74t44 -76t16 -64.5q0 -25 -18 -43.5t-43 -18.5q-22 0 -38.5 13.5t-21.5 35.5q-47 200 -285 200q-47 0 -91.5 -10t-87 -31.5t-68.5 -63t-26 -96.5q0 -76 46 -108t161 -59q145 -32 159 -35q142 -31 195 -53q142 -60 161 -195q4 -24 4 -51 q0 -158 -117.5 -247t-314.5 -89q-102 0 -187 29t-140.5 77.5t-87.5 109t-37 127.5z" />
<glyph unicode="t" horiz-adv-x="766" d="M63 1035q0 22 15.5 38t37.5 16h148v243q0 25 18.5 43t43.5 18t42.5 -18t17.5 -43v-243h260q21 0 36 -16t15 -38q0 -21 -15 -36t-36 -15h-260l-1 -744q0 -157 131 -157q19 0 37 5t28 10.5t24 14t17 10.5q16 9 31 9q26 0 43.5 -17t17.5 -44q0 -33 -30 -52q-79 -46 -167 -46 q-107 0 -180 66t-73 205v740h-148q-22 0 -37.5 15t-15.5 36z" />
<glyph unicode="u" horiz-adv-x="1207" d="M173 339v700q0 26 17.5 44t42.5 18t43.5 -18.5t18.5 -43.5v-695q0 -260 245 -260q70 0 131 22.5t101.5 57.5t69.5 79t42.5 86t13.5 79v631q0 26 17.5 44t42.5 18t43 -18t18 -44v-990q0 -25 -17.5 -43t-43.5 -18q-25 0 -42.5 17.5t-17.5 43.5v142q-22 -38 -52 -73 t-75 -69.5t-108.5 -55t-135.5 -20.5q-163 0 -258.5 95t-95.5 271z" />
<glyph unicode="v" horiz-adv-x="1048" d="M76 1040q0 24 18 42.5t44 18.5q21 0 37 -12.5t21 -30.5l240 -685q52 -146 88 -256q12 37 88 257l241 685q5 18 21 30t36 12q25 0 43.5 -18.5t18.5 -42.5q0 -10 -3 -22l-363 -991q-14 -39 -58 -39h-47q-20 0 -36.5 10.5t-22.5 28.5l-362 991q-4 11 -4 22z" />
<glyph unicode="w" horiz-adv-x="1599" d="M76 1040q0 23 17.5 42t44.5 19q20 0 37 -13t22 -32l196 -669q46 -160 70 -251q29 114 68 252l198 667q5 21 21.5 33.5t36.5 12.5h25q21 0 37.5 -12.5t20.5 -33.5l197 -666q42 -141 71 -253q33 130 69 252l196 668q5 20 21.5 32.5t36.5 12.5q26 0 44.5 -18.5t18.5 -43.5 q0 -4 -3 -19l-300 -975q-6 -20 -23 -32.5t-38 -12.5h-46q-20 0 -37 12.5t-22 32.5l-188 630q-31 103 -67 240q-31 -116 -68 -241l-187 -629q-5 -20 -22 -32.5t-38 -12.5h-47q-20 0 -36.5 12.5t-22.5 32.5l-300 975q-3 10 -3 20z" />
<glyph unicode="x" horiz-adv-x="1067" d="M81 46q0 20 12 35l370 497l-331 429q-13 16 -13 36q0 25 17 41.5t40 16.5q30 0 49 -26l310 -415l307 415q21 26 49 26q23 0 40 -17t17 -40q0 -21 -13 -37l-330 -429l369 -496q11 -16 11 -37q0 -23 -16.5 -40t-38.5 -17q-32 0 -51 25l-344 484l-348 -484q-18 -25 -48 -25 q-23 0 -40.5 16.5t-17.5 41.5z" />
<glyph unicode="y" horiz-adv-x="1048" d="M76 1037q0 28 18.5 46t43.5 18q20 0 36 -11.5t22 -30.5l254 -678q67 -184 93 -260q62 195 85 262l224 674q5 19 21.5 31.5t35.5 12.5q27 0 45.5 -18t18.5 -45q0 -10 -4 -21l-405 -1149q-39 -110 -107 -168q-66 -56 -175 -56q-46 0 -86 8q-22 3 -36.5 19.5t-14.5 38.5 q0 26 17.5 42.5t42.5 16.5q7 -1 41.5 -6t47.5 -4.5t48 7.5q71 17 109 118l33 96l-403 1034q-5 15 -5 23z" />
<glyph unicode="z" horiz-adv-x="1000" d="M81 55q0 19 13 36l627 887h-554q-21 0 -38 17t-17 38q0 24 16.5 40t38.5 16h671q24 0 39.5 -15.5t15.5 -40.5q0 -14 -8 -28l-634 -895h610q24 0 39.5 -15.5t15.5 -39.5q0 -22 -16 -38.5t-39 -16.5h-724q-22 0 -39 17t-17 38z" />
<glyph unicode="{" horiz-adv-x="722" d="M117 642q0 32 31 46q161 60 161 182q0 29 -22.5 130.5t-22.5 194.5q0 94 28 170t68 121t89.5 76t88 42.5t66.5 12.5q24 0 41.5 -17t17.5 -41q0 -22 -15 -38.5t-36 -19.5q-224 -46 -224 -313q0 -83 22.5 -180.5t22.5 -136.5q0 -49 -17 -90t-46 -67.5t-56.5 -43.5 t-58.5 -28q178 -69 178 -229q0 -39 -22.5 -136.5t-22.5 -180.5q0 -268 224 -314q21 -3 36 -19.5t15 -37.5q0 -24 -17.5 -41.5t-41.5 -17.5q-28 1 -66.5 12.5t-88 42.5t-89.5 76t-68 121t-28 170t22.5 195t22.5 130q0 121 -161 181q-31 14 -31 48z" />
<glyph unicode="|" horiz-adv-x="585" d="M249 -300v1895q0 18 13 30.5t32 12.5q18 0 30.5 -12.5t12.5 -30.5v-1895q0 -19 -12.5 -31.5t-30.5 -12.5q-19 0 -32 12.5t-13 31.5z" />
<glyph unicode="}" horiz-adv-x="722" d="M60 -275q0 21 15 37.5t36 19.5q225 46 225 314q0 83 -22.5 180.5t-22.5 136.5q0 49 17 89.5t46.5 67.5t56 43.5t57.5 28.5q-30 11 -57.5 28t-56.5 43.5t-46 67.5t-17 90q0 39 22.5 136.5t22.5 180.5q0 267 -225 313q-21 3 -36 19.5t-15 38.5q0 24 17.5 41t41.5 17 q28 -1 66.5 -12.5t88 -42.5t90 -76t68.5 -121t28 -170q0 -93 -23 -194.5t-23 -130.5q0 -70 48.5 -114.5t111.5 -67.5q32 -14 32 -46q0 -34 -32 -48q-28 -10 -52 -23.5t-50.5 -35t-42 -53.5t-15.5 -69q0 -29 23 -130t23 -195t-28 -170t-68.5 -121t-90 -76t-88 -42.5 t-66.5 -12.5q-24 0 -41.5 17.5t-17.5 41.5z" />
<glyph unicode="~" horiz-adv-x="1152" d="M119 833q0 6 5 21q25 70 82 111.5t138 41.5q54 0 121 -22t119.5 -48.5t113 -49t102.5 -22.5q92 0 134 93q14 33 47 33q21 0 36 -14.5t15 -35.5q0 -12 -5 -22q-24 -69 -81 -111t-138 -42q-54 0 -118.5 22t-115.5 48t-112.5 48.5t-109.5 22.5q-92 0 -134 -93 q-14 -33 -47 -33q-22 0 -37 15.5t-15 36.5z" />
<glyph unicode="&#xa1;" horiz-adv-x="586" d="M214 1019v122q0 28 19.5 46.5t47.5 18.5h25q28 0 48 -19t20 -46v-122q0 -27 -20 -46.5t-48 -19.5h-25q-28 0 -47.5 19.5t-19.5 46.5zM220 -152l25 881q0 18 12 30t29 12h15q17 0 29.5 -12t12.5 -30l25 -881v-114q0 -25 -18.5 -43t-44.5 -18h-23q-26 0 -44 18t-18 43v114z " />
<glyph unicode="&#xa2;" horiz-adv-x="1134" d="M110 532q0 253 115 407.5t323 173.5v141q0 19 13 31t32 12q18 0 31 -12.5t13 -30.5v-140q76 -5 141.5 -31.5t108.5 -62t75.5 -78.5t48.5 -77.5t22 -61.5q0 -28 -18.5 -47t-45.5 -19q-45 0 -62 45q-37 98 -106 154.5t-164 64.5v-917q99 9 171.5 73t109.5 172q13 41 59 41 q27 0 45 -19t18 -46q-2 -35 -29 -86t-74.5 -104.5t-127 -94t-172.5 -46.5v-135q0 -19 -13 -31.5t-31 -12.5q-19 0 -32 12.5t-13 31.5v136q-112 10 -197.5 59t-137 126t-77.5 171t-26 201zM231 538q2 -193 82.5 -312.5t234.5 -139.5v914q-156 -19 -237.5 -142t-79.5 -320z " />
<glyph unicode="&#xa3;" horiz-adv-x="1332" d="M119 679q0 21 15 35.5t35 14.5h164q-23 57 -35.5 91.5t-25 100t-12.5 133.5q0 193 120 315t321 122q169 0 287.5 -96.5t169.5 -257.5q7 -20 7 -36q0 -25 -17 -43t-42 -18q-24 0 -40.5 14t-21.5 35q-9 33 -23.5 67t-43.5 76t-65.5 73.5t-92 53.5t-119.5 22q-57 0 -110 -17 t-101 -53t-77 -102t-29 -155q0 -43 4 -80t15 -76t16.5 -56t23.5 -61.5t21 -51.5h383q21 0 35.5 -14.5t14.5 -35.5t-14.5 -35t-35.5 -14h-352q10 -50 10 -100q0 -196 -183 -389q114 62 247 62q73 0 152 -27.5t146 -54.5t111 -27q89 0 138 126q15 48 62 48q27 0 43 -18t16 -39 q0 -16 -3 -25q-87 -202 -260 -202q-47 0 -102.5 16.5t-99 37t-103 37t-114.5 16.5q-90 0 -180 -28t-151 -67q-13 -8 -34 -8q-25 0 -41.5 16.5t-16.5 39.5q0 28 23 47q94 82 160.5 198.5t66.5 248.5q0 45 -13 92h-199q-21 0 -35.5 14t-14.5 35z" />
<glyph unicode="&#xa4;" horiz-adv-x="1219" d="M117 242q0 21 14 37l156 161q-93 119 -93 309q0 182 91 298l-154 160q-14 14 -14 36q0 23 15.5 38t37.5 15q28 0 45 -24l131 -163q108 83 264 83q154 0 262 -83l134 163q15 24 44 24q22 0 37.5 -15t15.5 -38q0 -22 -14 -36l-152 -158q97 -118 97 -300q0 -192 -97 -312 l152 -158q14 -16 14 -37q0 -22 -15.5 -37.5t-37.5 -15.5q-29 0 -44 24l-133 163q-107 -82 -263 -82q-155 0 -262 85l-133 -166q-17 -24 -45 -24q-22 0 -37.5 15.5t-15.5 37.5zM295 748q0 -170 83.5 -266.5t231.5 -96.5q152 0 237.5 96.5t85.5 266.5q0 160 -87.5 256 t-235.5 96q-146 0 -230.5 -96t-84.5 -256z" />
<glyph unicode="&#xa5;" horiz-adv-x="1288" d="M79 1413q0 28 18.5 46t44.5 18q36 0 54 -30l448 -735l449 735q18 30 54 30q25 0 43.5 -18.5t18.5 -45.5q0 -19 -10 -36l-459 -727h390q20 0 34 -14t14 -34q0 -19 -14 -33t-34 -14h-422v-191h422q19 0 33.5 -14.5t14.5 -34.5q0 -19 -14 -33t-34 -14h-422v-216 q0 -27 -18.5 -45.5t-45.5 -18.5t-45.5 18.5t-18.5 45.5v216h-422q-20 0 -33.5 14t-13.5 33q0 20 14 34.5t33 14.5h422v191h-422q-20 0 -33.5 13.5t-13.5 33.5t14 34t33 14h389l-458 727q-10 17 -10 36z" />
<glyph unicode="&#xa6;" horiz-adv-x="585" d="M249 -300v693q0 18 13 30.5t32 12.5q18 0 30.5 -12.5t12.5 -30.5v-693q0 -19 -12.5 -31.5t-30.5 -12.5q-19 0 -32 12.5t-13 31.5zM249 907v688q0 18 13 30.5t32 12.5q18 0 30.5 -12.5t12.5 -30.5v-688q0 -19 -12.5 -31.5t-30.5 -12.5q-19 0 -32 12.5t-13 31.5z" />
<glyph unicode="&#xa7;" horiz-adv-x="1296" d="M124 710q0 182 188 266q-83 87 -83 202q0 141 112.5 227t287.5 86q96 0 178.5 -27.5t135.5 -72.5t84 -99t36 -109q0 -35 -17.5 -52.5t-43.5 -17.5q-24 0 -41 14.5t-21 38.5q-46 217 -302 217q-57 0 -107 -11.5t-91 -35t-65 -64.5t-24 -95q0 -75 46 -128t138 -104 l350 -190q40 -22 61.5 -34t56.5 -35.5t55 -41.5t45 -46.5t37.5 -57t22 -66.5t9.5 -81q-1 -89 -47.5 -158.5t-138.5 -104.5q81 -101 81 -205q0 -141 -112 -227t-287 -86q-96 0 -178.5 27.5t-136 72.5t-84.5 99t-36 109q0 34 17.5 52t43.5 18q24 0 41 -14.5t21 -37.5 q24 -115 104 -167t198 -52q58 0 107.5 11.5t90.5 35t65 64.5t24 96q0 74 -45.5 128t-137.5 104q-208 114 -350 190q-41 22 -61.5 34t-56.5 35.5t-55.5 41.5t-45 46.5t-38 57t-22 66.5t-9.5 81zM247 711q0 -46 14.5 -83t47.5 -70t70.5 -59t98.5 -61q122 -70 310 -170 q102 -58 115 -66q147 44 147 190q0 86 -54.5 144t-177.5 128q-57 33 -296 163q-85 47 -129 76q-146 -49 -146 -192z" />
<glyph unicode="&#xa8;" horiz-adv-x="1024" d="M229 1350v93q0 23 17.5 39.5t40.5 16.5h19q24 0 41.5 -16.5t17.5 -39.5v-93q0 -23 -17.5 -39.5t-41.5 -16.5h-19q-23 0 -40.5 17t-17.5 39zM659 1350v93q0 23 17.5 39.5t41.5 16.5h19q24 0 41 -16.5t17 -39.5v-93q0 -23 -17 -39.5t-41 -16.5h-19q-23 0 -41 17t-18 39z " />
<glyph unicode="&#xa9;" horiz-adv-x="1775" d="M124 755q0 217 100 396t275.5 281.5t388.5 102.5t388 -102.5t275 -281.5t100 -396q0 -163 -59 -308t-160 -249t-243 -164.5t-301 -60.5q-160 0 -301.5 60.5t-243 164.5t-160.5 249t-59 308zM220 756q0 -199 87 -358.5t240 -249t341 -89.5t340.5 89.5t239.5 249t87 358.5 q0 197 -87 356.5t-239.5 249.5t-340.5 90t-341 -90t-240 -249.5t-87 -356.5zM461 750q0 204 119.5 333t311.5 129q60 0 113 -13.5t90.5 -34t69.5 -49.5t51 -55t34 -54q8 -18 8 -29q0 -23 -16 -38.5t-39 -15.5q-38 0 -52 39q-74 158 -259 158q-150 0 -239 -103.5t-88 -261.5 q2 -161 89 -264.5t244 -103.5q95 0 164.5 49.5t106.5 145.5q16 33 51 33q24 0 39.5 -15.5t15.5 -38.5q0 -16 -17 -48q-19 -38 -49 -73t-74 -69t-106 -54.5t-132 -20.5q-108 0 -193.5 39t-137 104.5t-78.5 145t-27 165.5z" />
<glyph unicode="&#xaa;" horiz-adv-x="978" d="M96 914q0 105 74 166q42 34 107.5 52t174.5 31q8 1 37.5 4t44 5.5t41 6.5t42 8.5t33.5 11.5t28 16t14 20q9 23 9 55q0 68 -52 112t-159 44q-224 0 -256 -153q-2 -18 -16 -30t-33 -12q-21 0 -35.5 14.5t-14.5 36.5q7 85 93 156q96 76 260 76q175 0 258 -89q55 -61 55 -158 l1 -440q0 -20 2.5 -32t14.5 -23t34 -11q18 -2 30.5 -16t12.5 -32q0 -21 -14.5 -35.5t-35.5 -14.5q-44 0 -83 24q-28 18 -38.5 48.5t-16.5 81.5q-51 -81 -133 -123t-185 -42q-131 0 -212.5 65.5t-81.5 176.5zM196 921q0 -159 202 -159q124 0 213.5 72t89.5 166v138 q-63 -32 -201 -53q-19 -3 -56 -7t-60 -7.5t-55.5 -10.5t-53 -17.5t-40.5 -26t-29.5 -40t-9.5 -55.5z" />
<glyph unicode="&#xab;" horiz-adv-x="1299" d="M162 551q0 16 11 32l319 411q16 21 43 21q23 0 39 -15.5t16 -38.5q0 -21 -15 -38l-305 -372l302 -368q18 -21 18 -42q0 -23 -16 -39t-39 -16q-29 0 -48 26l-315 409q-10 13 -10 30zM668 551q0 16 11 32l318 411q16 21 43 21q23 0 39.5 -16t16.5 -38q0 -21 -15 -38 l-305 -372l302 -368q18 -21 18 -42q0 -23 -16.5 -39t-39.5 -16q-28 0 -47 26l-315 409q-10 13 -10 30z" />
<glyph unicode="&#xac;" horiz-adv-x="1173" d="M137 722q0 21 14.5 36t36.5 15h766q22 0 37.5 -15t15.5 -37l-1 -342q0 -22 -16.5 -38t-38.5 -16q-23 0 -38.5 15.5t-15.5 38.5l1 291h-710q-22 0 -36.5 15t-14.5 37z" />
<glyph unicode="&#xad;" horiz-adv-x="855" d="M117 650q0 24 16.5 40.5t39.5 16.5h509q23 0 39.5 -16.5t16.5 -40.5t-16.5 -40t-39.5 -16h-509q-23 0 -39.5 16t-16.5 40z" />
<glyph unicode="&#xae;" horiz-adv-x="1129" d="M106 1078q0 190 134.5 324t324.5 134t324 -134t134 -324t-133.5 -324t-324.5 -134t-325 134t-134 324zM167 1078q0 -166 116.5 -283t280.5 -117q166 0 282.5 117t116.5 283q0 165 -117 282t-282 117q-164 0 -280.5 -117.5t-116.5 -281.5zM387 870v422q0 15 11 26t26 11 h170q77 0 119 -35t42 -100q0 -88 -93 -120q50 -10 67 -61q7 -19 12.5 -63t9.5 -60q2 -16 2 -17q0 -16 -10.5 -26.5t-27.5 -10.5q-29 0 -37 27q-4 14 -6.5 31.5t-4 40.5t-3.5 36q-7 72 -89 72h-115v-173q0 -14 -10.5 -24t-25.5 -10t-26 10t-11 24zM460 1104h126 q52 0 73.5 24.5t21.5 58.5q0 37 -23.5 57t-62.5 20h-135v-160z" />
<glyph unicode="&#xaf;" horiz-adv-x="1024" d="M208 1358q0 22 15 37t37 15h504q22 0 37 -15t15 -37t-15 -37t-37 -15h-504q-22 0 -37 15t-15 37z" />
<glyph unicode="&#xb0;" horiz-adv-x="835" d="M86 1179q0 130 97 222.5t234 92.5t235 -92.5t98 -222.5q0 -132 -98 -225.5t-235 -93.5t-234 93.5t-97 225.5zM188 1179q0 -94 67 -160t163 -66q95 0 162 66t67 160q0 91 -67 156.5t-162 65.5q-96 0 -163 -65.5t-67 -156.5z" />
<glyph unicode="&#xb1;" horiz-adv-x="1303" d="M137 51q0 22 14.5 36.5t36.5 14.5h927q22 0 36.5 -14.5t14.5 -36.5t-14.5 -36.5t-36.5 -14.5h-927q-22 0 -36.5 14.5t-14.5 36.5zM137 760q0 21 14.5 36t36.5 15h383v395q0 22 16 38t39 16q22 0 38 -16t16 -38v-395h435q22 0 36.5 -15t14.5 -36q0 -22 -14.5 -37 t-36.5 -15h-435v-396q0 -22 -16 -38t-38 -16q-23 0 -39 16t-16 38v396h-383q-22 0 -36.5 15t-14.5 37z" />
<glyph unicode="&#xb2;" horiz-adv-x="870" d="M101 675q4 75 33.5 135t80.5 102t97.5 68t109.5 51q41 16 66 27.5t59 32t52.5 41.5t32.5 53.5t14 71.5q0 69 -51.5 119.5t-137.5 50.5q-102 0 -163 -52.5t-63 -135.5q-1 -22 -16 -37t-38 -15t-38.5 15.5t-15.5 38.5q0 124 98 202t232 78q125 0 213.5 -73.5t88.5 -199.5 q0 -57 -24.5 -106.5t-66.5 -85.5t-87 -60.5t-97 -43.5q-49 -18 -80 -31t-66.5 -34t-57.5 -43t-39 -54t-24 -71h172h330q19 0 32.5 -14t13.5 -33t-13.5 -32.5t-32.5 -13.5h-567q-20 0 -33.5 14t-13.5 35z" />
<glyph unicode="&#xb3;" horiz-adv-x="877" d="M101 873q0 23 15.5 39t38.5 16q22 0 37 -14.5t17 -37.5q3 -75 68.5 -125.5t174.5 -50.5q102 0 160 50t58 123q0 82 -65 122t-180 40q-19 0 -32.5 13t-13.5 32q0 20 12.5 33t31.5 13q214 0 214 143q0 71 -50 116t-138 45q-94 0 -150.5 -45.5t-59.5 -117.5 q-1 -23 -16.5 -38.5t-38.5 -15.5t-38 15.5t-15 38.5q2 100 86.5 177t228.5 77q125 0 211 -67t86 -185q0 -66 -41 -117t-116 -70q95 -23 142.5 -76t47.5 -126q0 -127 -93.5 -199t-230.5 -72q-85 0 -154 24.5t-110.5 64t-64 85t-22.5 90.5z" />
<glyph unicode="&#xb4;" horiz-adv-x="1024" d="M361 1263q0 10 7 24l187 300q19 32 54 32q25 0 43.5 -18.5t18.5 -44.5q0 -18 -14 -36l-212 -285q-16 -20 -37 -20q-19 0 -33 14t-14 34z" />
<glyph unicode="&#xb5;" horiz-adv-x="1222" d="M187 -313v1352q0 26 18.5 44t43.5 18q23 0 41.5 -17t18.5 -46v-694q0 -260 246 -260q70 0 130.5 22.5t101 57.5t70 79t42.5 86t13 79v631q0 25 18 43.5t44 18.5q25 0 42.5 -18t17.5 -44v-990q0 -26 -17.5 -43.5t-42.5 -17.5q-26 0 -44 18t-18 43v151q-21 -42 -50.5 -78.5 t-72.5 -72t-103.5 -56t-129.5 -20.5q-157 0 -247 104v-390q0 -26 -17.5 -44t-42.5 -18t-43.5 18.5t-18.5 43.5z" />
<glyph unicode="&#xb6;" horiz-adv-x="1311" d="M84 1108q0 173 113.5 286.5t325.5 113.5h524q22 0 37 -15t15 -36v-1628q0 -23 -14.5 -37.5t-37.5 -14.5t-38.5 15t-15.5 37v1592h-195v-1592q0 -22 -15 -37t-38 -15t-37.5 14.5t-14.5 37.5v876h-163q-222 0 -334 107.5t-112 295.5z" />
<glyph unicode="&#xb7;" horiz-adv-x="526" d="M177 673v167q0 27 20 46t48 19h37q28 0 47.5 -19t19.5 -46v-167q0 -28 -19.5 -47t-47.5 -19h-37q-28 0 -48 19t-20 47z" />
<glyph unicode="&#xb8;" horiz-adv-x="1024" d="M315 -408q0 18 12.5 30t29.5 12q9 0 16 -3q59 -26 99 -26q48 0 85.5 24.5t37.5 67.5q0 38 -31.5 59.5t-78.5 21.5q-28 0 -52.5 -4t-26.5 -4q-16 0 -27 10.5t-11 25.5q0 11 4 18l116 209l64 -35l-84 -150q20 4 35 4q78 0 129.5 -43t51.5 -112q0 -73 -61 -123t-148 -50 q-59 0 -134 30q-26 12 -26 38z" />
<glyph unicode="&#xb9;" horiz-adv-x="611" d="M70 1297q0 22 15 37.5t37 16.5q77 18 117.5 53t46.5 66q3 19 17 31t34 12h15q21 0 36 -14.5t15 -36.5v-790q0 -21 -15 -36t-36 -15q-22 0 -37 15t-15 36v538q0 73 5 133q-28 -40 -87.5 -70.5t-92.5 -30.5q-23 0 -39 15.5t-16 39.5z" />
<glyph unicode="&#xba;" horiz-adv-x="922" d="M63 1109q0 200 108.5 313t286.5 113q176 0 288.5 -113.5t112.5 -312.5q0 -204 -108.5 -321t-292.5 -117q-179 0 -287 117.5t-108 320.5zM163 1109q0 -162 79 -254.5t216 -92.5q142 0 222 92.5t80 254.5q0 152 -82.5 244t-219.5 92q-136 0 -215.5 -91.5t-79.5 -244.5z" />
<glyph unicode="&#xbb;" horiz-adv-x="1299" d="M201 141q0 22 17 42l302 368l-305 372q-14 16 -14 38q0 23 16 38.5t39 15.5q27 0 43 -21l318 -411q12 -17 12 -32t-11 -30l-315 -409q-19 -26 -47 -26q-23 0 -39 16t-16 39zM707 141q0 22 17 42l302 368l-305 372q-14 16 -14 38q0 23 16 38.5t39 15.5q27 0 43 -21 l318 -411q12 -17 12 -32t-11 -30l-315 -409q-20 -26 -47 -26q-23 0 -39 16t-16 39z" />
<glyph unicode="&#xbc;" horiz-adv-x="1624" d="M70 1297q0 22 15 37.5t37 16.5q77 18 117.5 53t46.5 66q3 19 17 31t34 12h15q21 0 36 -14.5t15 -36.5v-790q0 -21 -15 -36t-36 -15q-22 0 -37 15t-15 36v538q0 73 5 133q-28 -40 -87.5 -70.5t-92.5 -30.5q-23 0 -39 15.5t-16 39.5zM237 43q0 14 9 28l1021 1415 q12 22 38 22q19 0 31.5 -13t12.5 -31q0 -15 -13 -30l-1021 -1418q-14 -16 -34 -16q-18 0 -31 13t-13 30zM819 241q0 16 10 28l439 587q14 25 45 25h53q21 0 36 -15t15 -37v-542h89q21 0 34 -12.5t13 -33.5q0 -19 -13.5 -32.5t-33.5 -13.5h-89v-155q0 -22 -15 -37t-36 -15 q-22 0 -37 15t-15 37v155h-449q-19 0 -32.5 13.5t-13.5 32.5zM943 286q68 1 201 1h170v266q0 139 3 214q-46 -69 -199 -264q-65 -84 -175 -217z" />
<glyph unicode="&#xbd;" horiz-adv-x="1835" d="M70 1297q0 22 15 37.5t37 16.5q77 18 117.5 53t46.5 66q3 19 17 31t34 12h15q21 0 36 -14.5t15 -36.5v-790q0 -21 -15 -36t-36 -15q-22 0 -37 15t-15 36v538q0 73 5 133q-28 -40 -87.5 -70.5t-92.5 -30.5q-23 0 -39 15.5t-16 39.5zM231 43q0 12 10 28l1021 1415 q12 22 37 22q19 0 31.5 -13t12.5 -31t-12 -30l-1021 -1418q-13 -16 -34 -16q-18 0 -31.5 13t-13.5 30zM1065 49q3 60 24.5 112t51.5 88t75 67.5t82.5 50.5t86.5 39q53 21 83.5 36t68 42t55.5 63.5t18 84.5q0 69 -52 119.5t-138 50.5q-102 0 -162.5 -52.5t-62.5 -136.5 q-1 -22 -16 -37t-38 -15t-39 15.5t-16 38.5q0 124 98 202t232 78q125 0 213.5 -73t88.5 -199q0 -57 -24.5 -106.5t-66 -85.5t-86.5 -60.5t-97 -43.5q-48 -18 -79.5 -31.5t-67 -34t-57.5 -42.5t-39 -54.5t-24 -71.5h172h329q19 0 32.5 -14t13.5 -33t-13.5 -32.5t-32.5 -13.5 h-566q-20 0 -33.5 14t-13.5 35z" />
<glyph unicode="&#xbe;" horiz-adv-x="1804" d="M101 873q0 23 15.5 39t38.5 16q22 0 37 -14.5t17 -37.5q3 -75 68.5 -125.5t174.5 -50.5q102 0 160 50t58 123q0 82 -65 122t-180 40q-19 0 -32.5 13t-13.5 32q0 20 12.5 33t31.5 13q214 0 214 143q0 71 -50 116t-138 45q-94 0 -150.5 -45.5t-59.5 -117.5 q-1 -23 -16.5 -38.5t-38.5 -15.5t-38 15.5t-15 38.5q2 100 86.5 177t228.5 77q125 0 211 -67t86 -185q0 -66 -41 -117t-116 -70q95 -23 142.5 -76t47.5 -126q0 -127 -93.5 -199t-230.5 -72q-85 0 -154 24.5t-110.5 64t-64 85t-22.5 90.5zM416 43q0 14 9 28l1021 1415 q12 22 38 22q19 0 31.5 -13t12.5 -31t-12 -30l-1021 -1418q-13 -16 -34 -16q-18 0 -31.5 13t-13.5 30zM999 241q0 15 11 28l438 587q14 25 45 25h53q21 0 36 -15t15 -37v-542h90q21 0 34 -12.5t13 -33.5q0 -19 -13.5 -32.5t-33.5 -13.5h-90v-155q0 -22 -15 -37t-36 -15 q-22 0 -37 15t-15 37v155h-448q-19 0 -33 13.5t-14 32.5zM1123 286q68 1 201 1h170v266q0 139 3 214q-46 -69 -199 -264q-65 -84 -175 -217z" />
<glyph unicode="&#xbf;" horiz-adv-x="1173" d="M117 48q0 31 3.5 59t13 52.5t17.5 43.5t25 40t27 33.5t32.5 31t32.5 26.5t35 27t33 25q39 31 59 48t47 47t39 58t21.5 70.5t9.5 95.5q0 28 21 47t51 19q28 0 46.5 -19t18.5 -47q0 -81 -17 -145t-50 -110.5t-64 -76t-77 -62.5q-12 -9 -45.5 -32.5t-46.5 -33.5t-37 -33.5 t-34 -43.5t-18.5 -51t-8.5 -67q0 -133 85 -213.5t233 -80.5q161 0 252.5 89t101.5 226q0 28 19 47t48 19q28 0 47.5 -19.5t19.5 -47.5q-2 -80 -34 -155t-91 -137t-154 -99t-213 -37q-120 0 -220 45t-164 139t-64 222zM500 1004v119q0 28 19.5 47t47.5 19h26q28 0 47.5 -19 t19.5 -47v-119q0 -27 -19.5 -47t-47.5 -20h-26q-28 0 -47.5 20t-19.5 47z" />
<glyph unicode="&#xc0;" horiz-adv-x="1386" d="M43 49q0 4 3 19l568 1401q17 45 59 45h38q46 0 58 -41l571 -1405q3 -7 3 -19q0 -27 -17.5 -44t-42.5 -17q-41 0 -58 38l-179 449h-706l-178 -448q-16 -39 -58 -39q-26 0 -43.5 17.5t-17.5 43.5zM385 592h615l-187 474q-89 233 -121 328q-52 -155 -122 -334zM442 1932 q0 27 19 46t46 19q38 0 56 -34l164 -265q7 -14 7 -26q0 -20 -14 -34.5t-34 -14.5q-24 0 -40 21l-185 243q-19 21 -19 45z" />
<glyph unicode="&#xc1;" horiz-adv-x="1386" d="M43 49q0 4 3 19l568 1401q17 45 59 45h38q46 0 58 -41l571 -1405q3 -7 3 -19q0 -27 -17.5 -44t-42.5 -17q-41 0 -58 38l-179 449h-706l-178 -448q-16 -39 -58 -39q-26 0 -43.5 17.5t-17.5 43.5zM385 592h615l-187 474q-89 233 -121 328q-52 -155 -122 -334zM632 1672 q0 12 7 26l164 265q18 34 56 34q27 0 46 -19t19 -46q0 -24 -19 -45l-185 -243q-16 -21 -40 -21q-20 0 -34 14.5t-14 34.5z" />
<glyph unicode="&#xc2;" horiz-adv-x="1386" d="M43 49q0 4 3 19l568 1401q17 45 59 45h38q46 0 58 -41l571 -1405q3 -7 3 -19q0 -27 -17.5 -44t-42.5 -17q-41 0 -58 38l-179 449h-706l-178 -448q-16 -39 -58 -39q-26 0 -43.5 17.5t-17.5 43.5zM385 592h615l-187 474q-89 233 -121 328q-52 -155 -122 -334zM402 1703 q0 18 13 29l210 200q17 20 41 20h56q25 0 41 -19l210 -201q12 -10 12 -29q0 -18 -12.5 -31t-31.5 -13q-16 0 -29 9l-218 185l-219 -185q-13 -9 -29 -9q-19 0 -31.5 13t-12.5 31z" />
<glyph unicode="&#xc3;" horiz-adv-x="1386" d="M43 49q0 4 3 19l568 1401q17 45 59 45h38q46 0 58 -41l571 -1405q3 -7 3 -19q0 -27 -17.5 -44t-42.5 -17q-41 0 -58 38l-179 449h-706l-178 -448q-16 -39 -58 -39q-26 0 -43.5 17.5t-17.5 43.5zM327 1719q0 30 25 57q76 91 186 91q43 0 90.5 -16t81 -35.5t72.5 -35.5 t69 -16q27 0 49 13t32.5 26t26.5 37q18 26 47 26q25 0 40 -17t15 -38q0 -27 -27 -55q-74 -92 -184 -92q-57 0 -116.5 25.5t-110.5 51t-88 25.5q-66 0 -103 -68q-20 -32 -50 -32q-24 0 -39.5 15.5t-15.5 37.5zM385 592h615l-187 474q-89 233 -121 328q-52 -155 -122 -334z " />
<glyph unicode="&#xc4;" horiz-adv-x="1386" d="M43 49q0 4 3 19l568 1401q17 45 59 45h38q46 0 58 -41l571 -1405q3 -7 3 -19q0 -27 -17.5 -44t-42.5 -17q-41 0 -58 38l-179 449h-706l-178 -448q-16 -39 -58 -39q-26 0 -43.5 17.5t-17.5 43.5zM369 1729v93q0 23 17 39.5t40 16.5h19q24 0 41.5 -16.5t17.5 -39.5v-93 q0 -23 -17.5 -40t-41.5 -17h-19q-23 0 -40 17t-17 40zM385 592h615l-187 474q-89 233 -121 328q-52 -155 -122 -334zM883 1729v93q0 23 17 39.5t40 16.5h21q23 0 40 -16.5t17 -39.5v-93q0 -23 -17 -40t-40 -17h-21q-23 0 -40 17t-17 40z" />
<glyph unicode="&#xc5;" horiz-adv-x="1386" d="M43 49q0 4 3 19l567 1399q-48 22 -77 66.5t-29 97.5q0 74 55 127t133 53q77 0 132 -53t55 -127q0 -55 -30 -99.5t-80 -66.5l568 -1397q3 -7 3 -19q0 -27 -17.5 -44t-42.5 -17q-41 0 -58 38l-179 449h-706l-178 -448q-16 -39 -58 -39q-26 0 -43.5 17.5t-17.5 43.5z M385 592h615l-187 474q-89 233 -121 328q-52 -155 -122 -334zM578 1631q0 -45 29 -78.5t73 -38.5h31q43 5 72 39t29 78q0 47 -34 82t-83 35t-83 -35t-34 -82z" />
<glyph unicode="&#xc6;" horiz-adv-x="2143" d="M43 49q0 15 5 24l696 1397q15 38 56 38h1157q24 0 41 -17.5t17 -40.5q0 -24 -17 -40.5t-41 -16.5h-829v-577h748q23 0 40 -17t17 -41t-17 -41t-40 -17h-748v-584h850q24 0 41.5 -17.5t17.5 -40.5q0 -24 -17.5 -41t-41.5 -17h-913q-27 0 -46 19t-19 46v410h-614l-225 -451 q-17 -36 -58 -36q-26 0 -43 17.5t-17 43.5zM443 592h557v801h-163z" />
<glyph unicode="&#xc7;" horiz-adv-x="1524" d="M124 751q0 176 50 322.5t140.5 248.5t220 158t285.5 56q117 0 216.5 -32t162.5 -79.5t109.5 -106.5t67.5 -109t26 -91q0 -29 -20 -48.5t-48 -19.5q-24 0 -42 14t-23 36q-38 147 -153.5 234t-299.5 87q-249 0 -403 -180.5t-154 -491.5q0 -196 66.5 -345.5t193 -233 t295.5 -83.5q127 0 226 43.5t168.5 141t93.5 242.5q3 25 22 41.5t45 16.5q28 0 47.5 -19t19.5 -47q-1 -22 -7.5 -55.5t-24.5 -83t-45 -99.5t-73 -101.5t-104 -92t-143 -68.5t-184 -33l-80 -130q16 3 39 3q83 0 137 -42.5t54 -111.5q0 -73 -64 -123t-156 -50q-69 0 -141 29 q-26 12 -26 39q0 17 13 29.5t31 12.5q7 0 16 -3q63 -27 104 -27q51 0 92 25t41 68q0 38 -34 59.5t-83 21.5q-30 0 -57 -4.5t-28 -4.5q-17 0 -28 11t-11 26q0 10 4 18l91 154q-133 8 -248.5 61.5t-204.5 148.5t-140.5 241.5t-51.5 326.5z" />
<glyph unicode="&#xc8;" horiz-adv-x="1355" d="M213 65v1380q0 26 19 44.5t46 18.5h891q23 0 40.5 -17.5t17.5 -40.5q0 -24 -17 -40.5t-41 -16.5h-828v-577h746q24 0 41.5 -17t17.5 -41t-17.5 -41t-41.5 -17h-746v-584h850q24 0 41 -17.5t17 -40.5q0 -25 -17 -41.5t-41 -16.5h-913q-27 0 -46 19t-19 46zM464 1944 q0 27 18.5 45.5t45.5 18.5q39 0 57 -34l164 -265q7 -14 7 -26q0 -20 -14 -34.5t-34 -14.5q-24 0 -40 21l-186 243q-18 20 -18 46z" />
<glyph unicode="&#xc9;" horiz-adv-x="1355" d="M213 65v1380q0 26 19 44.5t46 18.5h891q23 0 40.5 -17.5t17.5 -40.5q0 -24 -17 -40.5t-41 -16.5h-828v-577h746q24 0 41.5 -17t17.5 -41t-17.5 -41t-41.5 -17h-746v-584h850q24 0 41 -17.5t17 -40.5q0 -25 -17 -41.5t-41 -16.5h-913q-27 0 -46 19t-19 46zM565 1672 q0 12 7 26l164 265q18 34 57 34q27 0 45.5 -19t18.5 -46q0 -25 -18 -45l-186 -243q-16 -21 -40 -21q-20 0 -34 14.5t-14 34.5z" />
<glyph unicode="&#xca;" horiz-adv-x="1355" d="M213 65v1380q0 26 19 44.5t46 18.5h891q23 0 40.5 -17.5t17.5 -40.5q0 -24 -17 -40.5t-41 -16.5h-828v-577h746q24 0 41.5 -17t17.5 -41t-17.5 -41t-41.5 -17h-746v-584h850q24 0 41 -17.5t17 -40.5q0 -25 -17 -41.5t-41 -16.5h-913q-27 0 -46 19t-19 46zM390 1703 q0 19 12 29l210 200q17 20 41 20h57q25 0 41 -19l210 -201q12 -10 12 -29q0 -18 -12.5 -31t-31.5 -13q-16 0 -29 9l-218 185l-219 -185q-13 -9 -29 -9q-19 0 -31.5 13t-12.5 31z" />
<glyph unicode="&#xcb;" horiz-adv-x="1355" d="M213 65v1380q0 26 19 44.5t46 18.5h891q23 0 40.5 -17.5t17.5 -40.5q0 -24 -17 -40.5t-41 -16.5h-828v-577h746q24 0 41.5 -17t17.5 -41t-17.5 -41t-41.5 -17h-746v-584h850q24 0 41 -17.5t17 -40.5q0 -25 -17 -41.5t-41 -16.5h-913q-27 0 -46 19t-19 46zM373 1750v93 q0 23 17 40t40 17h20q24 0 41 -17t17 -40v-93q0 -23 -17 -39.5t-41 -16.5h-20q-23 0 -40 16.5t-17 39.5zM887 1750v93q0 23 17 40t40 17h21q23 0 40 -17t17 -40v-93q0 -23 -17 -39.5t-40 -16.5h-21q-23 0 -40 16.5t-17 39.5z" />
<glyph unicode="&#xcc;" horiz-adv-x="553" d="M43 1932q0 27 19 46t46 19q38 0 56 -34l164 -265q7 -14 7 -26q0 -20 -14 -34.5t-34 -14.5q-24 0 -40 21l-186 243q-18 20 -18 45zM213 52v1405q0 26 19 45t46 19t45 -18.5t18 -45.5v-1405q0 -27 -18 -45.5t-45 -18.5t-46 18.5t-19 45.5z" />
<glyph unicode="&#xcd;" horiz-adv-x="553" d="M213 52v1405q0 26 19 45t46 19t45 -18.5t18 -45.5v-1405q0 -27 -18 -45.5t-45 -18.5t-46 18.5t-19 45.5zM214 1672q0 12 7 26l164 265q18 34 56 34q27 0 46 -19t19 -46q0 -24 -19 -45l-185 -243q-16 -21 -40 -21q-20 0 -34 14.5t-14 34.5z" />
<glyph unicode="&#xce;" horiz-adv-x="553" d="M-11 1703q0 19 12 29l210 200q17 20 41 20h56q25 0 41 -19l210 -201q12 -10 12 -29q0 -18 -12.5 -31t-31.5 -13q-15 0 -28 9l-218 185l-220 -185q-13 -9 -28 -9q-19 0 -31.5 13t-12.5 31zM213 52v1405q0 26 19 45t46 19t45 -18.5t18 -45.5v-1405q0 -27 -18 -45.5 t-45 -18.5t-46 18.5t-19 45.5z" />
<glyph unicode="&#xcf;" horiz-adv-x="553" d="M-47 1750v93q0 23 17 40t40 17h20q24 0 41 -17t17 -40v-93q0 -23 -17 -39.5t-41 -16.5h-20q-23 0 -40 16.5t-17 39.5zM213 52v1405q0 26 19 45t46 19t45 -18.5t18 -45.5v-1405q0 -27 -18 -45.5t-45 -18.5t-46 18.5t-19 45.5zM467 1750v93q0 23 17 40t40 17h21 q23 0 40 -17t17 -40v-93q0 -23 -17 -39.5t-40 -16.5h-21q-23 0 -40 16.5t-17 39.5z" />
<glyph unicode="&#xd0;" horiz-adv-x="1546" d="M55 784q0 23 16 39t39 16h103v606q0 27 18 45t45 18h488q140 0 252 -40.5t186.5 -110t125 -166.5t72.5 -206.5t22 -233.5q0 -357 -173.5 -554t-497.5 -197h-475q-27 0 -45 18t-18 45v667h-103q-23 0 -39 15.5t-16 38.5zM341 114h411q121 0 215 35.5t153.5 94.5t98 142.5 t54 172.5t15.5 191q0 99 -14.5 186.5t-51 173.5t-94 147t-150 99t-211.5 38h-426v-555h441q23 0 39 -16t16 -39t-16 -38.5t-39 -15.5h-441v-616z" />
<glyph unicode="&#xd1;" horiz-adv-x="1557" d="M213 52v1398q0 27 19 45.5t46 18.5h33q36 0 54 -26l651 -974q124 -186 206 -316q-5 128 -5 352v907q0 26 18.5 45t44.5 19q27 0 46 -19t19 -45v-1399q0 -27 -19 -45.5t-46 -18.5h-30q-35 0 -54 29l-644 963q-121 178 -216 334q5 -133 5 -365v-903q0 -27 -18 -45.5 t-45 -18.5t-46 18.5t-19 45.5zM412 1719q0 30 25 57q76 91 186 91q43 0 90.5 -16t81 -35.5t72.5 -35.5t69 -16q27 0 49 13t32.5 26t26.5 37q18 26 47 26q25 0 40 -17t15 -38q0 -27 -27 -55q-74 -92 -184 -92q-57 0 -116.5 25.5t-110.5 51t-88 25.5q-66 0 -103 -68 q-20 -32 -50 -32q-24 0 -39.5 15.5t-15.5 37.5z" />
<glyph unicode="&#xd2;" d="M124 753q0 228 91 407t249.5 277t354.5 98q147 0 276 -57.5t221.5 -159t146 -248t53.5 -317.5q0 -226 -92.5 -405.5t-251 -277.5t-353.5 -98q-194 0 -352.5 98t-250.5 277.5t-92 405.5zM259 753q0 -291 159 -477.5t401 -186.5q160 0 288 84t201 236t73 344 q0 195 -73 347.5t-201 236t-288 83.5q-159 0 -286.5 -83.5t-200.5 -236t-73 -347.5zM519 1932q0 27 19 46t46 19q38 0 56 -34l164 -265q7 -14 7 -26q0 -20 -14 -34.5t-34 -14.5q-24 0 -40 21l-185 243q-19 21 -19 45z" />
<glyph unicode="&#xd3;" d="M124 753q0 228 91 407t249.5 277t354.5 98q147 0 276 -57.5t221.5 -159t146 -248t53.5 -317.5q0 -226 -92.5 -405.5t-251 -277.5t-353.5 -98q-194 0 -352.5 98t-250.5 277.5t-92 405.5zM259 753q0 -291 159 -477.5t401 -186.5q160 0 288 84t201 236t73 344 q0 195 -73 347.5t-201 236t-288 83.5q-159 0 -286.5 -83.5t-200.5 -236t-73 -347.5zM748 1672q0 12 7 26l164 265q18 34 56 34q27 0 45.5 -19t18.5 -46q0 -25 -18 -45l-185 -243q-16 -21 -40 -21q-20 0 -34 14.5t-14 34.5z" />
<glyph unicode="&#xd4;" d="M124 753q0 228 91 407t249.5 277t354.5 98q147 0 276 -57.5t221.5 -159t146 -248t53.5 -317.5q0 -226 -92.5 -405.5t-251 -277.5t-353.5 -98q-194 0 -352.5 98t-250.5 277.5t-92 405.5zM259 753q0 -291 159 -477.5t401 -186.5q160 0 288 84t201 236t73 344 q0 195 -73 347.5t-201 236t-288 83.5q-159 0 -286.5 -83.5t-200.5 -236t-73 -347.5zM526 1703q0 18 13 29l210 200q17 20 41 20h56q25 0 41 -19l210 -201q12 -10 12 -29q0 -18 -12.5 -31t-31.5 -13q-16 0 -29 9l-218 185l-219 -185q-13 -9 -29 -9q-19 0 -31.5 13t-12.5 31z " />
<glyph unicode="&#xd5;" d="M124 753q0 228 91 407t249.5 277t354.5 98q147 0 276 -57.5t221.5 -159t146 -248t53.5 -317.5q0 -226 -92.5 -405.5t-251 -277.5t-353.5 -98q-194 0 -352.5 98t-250.5 277.5t-92 405.5zM259 753q0 -291 159 -477.5t401 -186.5q160 0 288 84t201 236t73 344 q0 195 -73 347.5t-201 236t-288 83.5q-159 0 -286.5 -83.5t-200.5 -236t-73 -347.5zM451 1735q0 29 25 56q76 91 186 91q55 0 114 -25.5t111 -51t88 -25.5q27 0 49 12.5t32.5 25.5t26.5 37q18 26 46 26q25 0 40.5 -16.5t15.5 -37.5q0 -27 -27 -55q-75 -93 -184 -93 q-45 0 -92.5 16t-81 35.5t-73 35.5t-69.5 16q-64 0 -102 -69q-20 -32 -50 -32q-24 0 -39.5 16t-15.5 38z" />
<glyph unicode="&#xd6;" d="M124 753q0 228 91 407t249.5 277t354.5 98q147 0 276 -57.5t221.5 -159t146 -248t53.5 -317.5q0 -226 -92.5 -405.5t-251 -277.5t-353.5 -98q-194 0 -352.5 98t-250.5 277.5t-92 405.5zM259 753q0 -291 159 -477.5t401 -186.5q160 0 288 84t201 236t73 344 q0 195 -73 347.5t-201 236t-288 83.5q-159 0 -286.5 -83.5t-200.5 -236t-73 -347.5zM493 1750v93q0 23 17 40t40 17h19q24 0 41.5 -17t17.5 -40v-93q0 -23 -17.5 -39.5t-41.5 -16.5h-19q-23 0 -40 16.5t-17 39.5zM1007 1750v93q0 23 17 40t40 17h20q23 0 40.5 -17t17.5 -40 v-93q0 -23 -17.5 -39.5t-40.5 -16.5h-20q-23 0 -40 16.5t-17 39.5z" />
<glyph unicode="&#xd7;" horiz-adv-x="1259" d="M177 297q0 29 23 45l358 328l-367 335q-14 17 -14 37q0 23 16.5 40t39.5 17q21 0 38 -15l359 -349l352 343q17 21 43 21q24 0 40 -16.5t16 -40.5q0 -21 -13 -37l-367 -335l358 -328q22 -17 22 -45q0 -23 -16 -39.5t-40 -16.5q-25 0 -41 18l-354 345l-355 -345 q-16 -18 -42 -18q-23 0 -39.5 16.5t-16.5 39.5z" />
<glyph unicode="&#xd8;" d="M124 753q0 228 91 407t249.5 277t354.5 98q239 0 419 -143l104 139q14 19 38 19q19 0 32.5 -13.5t13.5 -32.5q0 -14 -12 -30l-108 -145q100 -106 155 -253t55 -323q0 -226 -92.5 -405.5t-251 -277.5t-353.5 -98q-240 0 -423 150l-110 -147q-14 -17 -37 -17 q-19 0 -32.5 13t-13.5 32q0 16 12 32l114 150q-97 105 -151 251t-54 317zM259 753q0 -276 148 -464l756 1004q-146 127 -344 127q-159 0 -286.5 -83.5t-200.5 -236t-73 -347.5zM471 221q148 -132 348 -132q160 0 288 84t201 236t73 344q0 287 -152 474z" />
<glyph unicode="&#xd9;" horiz-adv-x="1488" d="M190 487v970q0 26 18.5 45t45.5 19t45.5 -19t18.5 -45v-972q0 -191 102 -296.5t323 -105.5q112 0 195 28t133.5 82t74.5 126.5t24 165.5v972q0 26 19 45t46 19q26 0 44.5 -19t18.5 -45v-970q0 -78 -17 -149t-58 -139t-103 -117.5t-159 -79.5t-218 -30t-217.5 30 t-158 79.5t-102.5 117.5t-58 139t-17 149zM495 1913q0 27 18.5 45.5t45.5 18.5q39 0 56 -33l164 -266q7 -14 7 -25q0 -20 -14 -34.5t-34 -14.5q-25 0 -40 20l-185 244q-18 20 -18 45z" />
<glyph unicode="&#xda;" horiz-adv-x="1488" d="M190 487v970q0 26 18.5 45t45.5 19t45.5 -19t18.5 -45v-972q0 -191 102 -296.5t323 -105.5q112 0 195 28t133.5 82t74.5 126.5t24 165.5v972q0 26 19 45t46 19q26 0 44.5 -19t18.5 -45v-970q0 -78 -17 -149t-58 -139t-103 -117.5t-159 -79.5t-218 -30t-217.5 30 t-158 79.5t-102.5 117.5t-58 139t-17 149zM674 1658q0 11 7 25l164 266q17 33 56 33q27 0 46 -18.5t19 -45.5q0 -24 -19 -45l-185 -244q-15 -20 -40 -20q-20 0 -34 14.5t-14 34.5z" />
<glyph unicode="&#xdb;" horiz-adv-x="1488" d="M190 487v970q0 26 18.5 45t45.5 19t45.5 -19t18.5 -45v-972q0 -191 102 -296.5t323 -105.5q112 0 195 28t133.5 82t74.5 126.5t24 165.5v972q0 26 19 45t46 19q26 0 44.5 -19t18.5 -45v-970q0 -78 -17 -149t-58 -139t-103 -117.5t-159 -79.5t-218 -30t-217.5 30 t-158 79.5t-102.5 117.5t-58 139t-17 149zM454 1703q0 19 12 29l210 200q17 20 41 20h56q25 0 41 -19l210 -201q12 -10 12 -29q0 -18 -12.5 -31t-31.5 -13q-15 0 -28 9l-219 185l-219 -185q-13 -9 -28 -9q-19 0 -31.5 13t-12.5 31z" />
<glyph unicode="&#xdc;" horiz-adv-x="1488" d="M190 487v970q0 26 18.5 45t45.5 19t45.5 -19t18.5 -45v-972q0 -191 102 -296.5t323 -105.5q112 0 195 28t133.5 82t74.5 126.5t24 165.5v972q0 26 19 45t46 19q26 0 44.5 -19t18.5 -45v-970q0 -78 -17 -149t-58 -139t-103 -117.5t-159 -79.5t-218 -30t-217.5 30 t-158 79.5t-102.5 117.5t-58 139t-17 149zM420 1750v93q0 23 17 40t40 17h20q24 0 41 -17t17 -40v-93q0 -23 -17 -39.5t-41 -16.5h-20q-23 0 -40 16.5t-17 39.5zM934 1750v93q0 23 17 40t40 17h21q23 0 40 -17t17 -40v-93q0 -23 -17 -39.5t-40 -16.5h-21q-23 0 -40 16.5 t-17 39.5z" />
<glyph unicode="&#xdd;" horiz-adv-x="1288" d="M79 1457q0 28 18.5 46t44.5 18q36 0 54 -30l448 -735l449 735q18 30 54 30q25 0 43.5 -18.5t18.5 -45.5q0 -19 -10 -36l-491 -778v-591q0 -27 -18.5 -45.5t-45.5 -18.5t-45.5 18.5t-18.5 45.5v591l-491 778q-10 17 -10 36zM582 1642q0 12 7 26l164 265q18 34 56 34 q27 0 45.5 -18.5t18.5 -45.5q0 -25 -18 -45l-185 -244q-16 -21 -40 -21q-20 0 -34 14.5t-14 34.5z" />
<glyph unicode="&#xde;" horiz-adv-x="1324" d="M213 52v1405q0 26 19 45t46 19t45 -18.5t18 -45.5v-194h439q113 0 203 -34.5t146 -94t85.5 -137.5t29.5 -169q0 -205 -122 -322t-363 -117h-418v-337q0 -27 -18 -45.5t-45 -18.5t-46 18.5t-19 45.5zM341 504h418q98 0 168 23.5t109 68t56.5 100.5t17.5 128q0 156 -86 240 t-251 84h-432v-644z" />
<glyph unicode="&#xdf;" horiz-adv-x="1275" d="M187 49v1065q0 105 32.5 187t89.5 132.5t129.5 76t156.5 25.5q99 0 175.5 -28.5t121 -76.5t67 -105t22.5 -120t-25 -121.5t-54.5 -94t-54.5 -76.5t-25 -73q0 -23 7.5 -43.5t16.5 -34t29 -30.5t32 -25.5t39 -26t38 -24.5q42 -29 72 -55.5t62.5 -66t49.5 -90.5t17 -112 q0 -73 -22.5 -134t-60.5 -102t-88 -69.5t-103.5 -41.5t-109.5 -13q-134 0 -259 60q-40 15 -40 57q0 26 18 44t44 18q13 0 27 -7q104 -61 212 -61q34 0 67.5 6.5t69 25t62 46t43.5 73t17 103.5q0 45 -14 83t-44.5 69.5t-55 50.5t-67.5 48q-32 21 -38.5 25.5t-34.5 25 t-36 30.5t-27 32t-25.5 40.5t-13 44.5t-6.5 55q0 50 25 100t54.5 84.5t54.5 83.5t25 98q0 42 -14 79t-43 69t-81.5 51t-121.5 19q-68 0 -121 -20.5t-84 -51.5t-51 -74.5t-27 -84t-7 -84.5v-1061q0 -25 -17.5 -43t-42.5 -18t-43.5 18t-18.5 43z" />
<glyph unicode="&#xe0;" horiz-adv-x="1172" d="M106 293q0 139 93 219q53 44 133.5 67.5t216.5 41.5q9 1 35.5 4.5t41 5t41 5.5t42.5 8t38.5 9.5t36.5 12t29 15t23.5 18.5t12.5 22q11 31 11 74q0 90 -65 150t-198 60q-278 0 -318 -207q-4 -23 -20.5 -38t-40.5 -15q-26 0 -44 18t-18 45q5 51 34.5 107.5t79.5 98.5 q119 101 325 101q215 0 320 -120q68 -78 68 -205l1 -589q0 -22 1.5 -35t7.5 -27.5t19.5 -21.5t35.5 -7q23 -2 38 -19.5t15 -41.5q0 -26 -17.5 -43.5t-44.5 -17.5q-58 0 -105 29q-35 24 -49 68t-17 113q-63 -110 -165 -167.5t-230 -57.5q-163 0 -265 86t-102 234zM229 301 q0 -217 253 -217q155 0 266.5 97.5t111.5 227.5v188q-80 -43 -250 -71q-26 -5 -82 -12.5t-88.5 -13t-78 -20.5t-70.5 -35.5t-43.5 -57t-18.5 -86.5zM332 1556q0 26 18 44.5t43 18.5q36 0 54 -32l188 -300q6 -12 6 -24q0 -20 -13.5 -34t-32.5 -14q-22 0 -38 20l-212 285 q-13 16 -13 36z" />
<glyph unicode="&#xe1;" horiz-adv-x="1172" d="M106 293q0 139 93 219q53 44 133.5 67.5t216.5 41.5q9 1 35.5 4.5t41 5t41 5.5t42.5 8t38.5 9.5t36.5 12t29 15t23.5 18.5t12.5 22q11 31 11 74q0 90 -65 150t-198 60q-278 0 -318 -207q-4 -23 -20.5 -38t-40.5 -15q-26 0 -44 18t-18 45q5 51 34.5 107.5t79.5 98.5 q119 101 325 101q215 0 320 -120q68 -78 68 -205l1 -589q0 -22 1.5 -35t7.5 -27.5t19.5 -21.5t35.5 -7q23 -2 38 -19.5t15 -41.5q0 -26 -17.5 -43.5t-44.5 -17.5q-58 0 -105 29q-35 24 -49 68t-17 113q-63 -110 -165 -167.5t-230 -57.5q-163 0 -265 86t-102 234zM229 301 q0 -217 253 -217q155 0 266.5 97.5t111.5 227.5v188q-80 -43 -250 -71q-26 -5 -82 -12.5t-88.5 -13t-78 -20.5t-70.5 -35.5t-43.5 -57t-18.5 -86.5zM502 1263q0 12 6 24l187 300q19 32 55 32q25 0 43 -18.5t18 -44.5q0 -20 -13 -36l-212 -285q-16 -20 -38 -20 q-19 0 -32.5 14t-13.5 34z" />
<glyph unicode="&#xe2;" horiz-adv-x="1172" d="M106 293q0 139 93 219q53 44 133.5 67.5t216.5 41.5q9 1 35.5 4.5t41 5t41 5.5t42.5 8t38.5 9.5t36.5 12t29 15t23.5 18.5t12.5 22q11 31 11 74q0 90 -65 150t-198 60q-278 0 -318 -207q-4 -23 -20.5 -38t-40.5 -15q-26 0 -44 18t-18 45q5 51 34.5 107.5t79.5 98.5 q119 101 325 101q215 0 320 -120q68 -78 68 -205l1 -589q0 -22 1.5 -35t7.5 -27.5t19.5 -21.5t35.5 -7q23 -2 38 -19.5t15 -41.5q0 -26 -17.5 -43.5t-44.5 -17.5q-58 0 -105 29q-35 24 -49 68t-17 113q-63 -110 -165 -167.5t-230 -57.5q-163 0 -265 86t-102 234zM229 301 q0 -217 253 -217q155 0 266.5 97.5t111.5 227.5v188q-80 -43 -250 -71q-26 -5 -82 -12.5t-88.5 -13t-78 -20.5t-70.5 -35.5t-43.5 -57t-18.5 -86.5zM328 1269q0 14 10 27l183 252q20 27 46 27h54q27 0 44 -24l185 -255q10 -14 10 -27q0 -18 -13 -31t-31 -13q-20 0 -34 17 l-188 232l-188 -232q-13 -17 -34 -17q-18 0 -31 13t-13 31z" />
<glyph unicode="&#xe3;" horiz-adv-x="1172" d="M106 293q0 139 93 219q53 44 133.5 67.5t216.5 41.5q9 1 35.5 4.5t41 5t41 5.5t42.5 8t38.5 9.5t36.5 12t29 15t23.5 18.5t12.5 22q11 31 11 74q0 90 -65 150t-198 60q-278 0 -318 -207q-4 -23 -20.5 -38t-40.5 -15q-26 0 -44 18t-18 45q5 51 34.5 107.5t79.5 98.5 q119 101 325 101q215 0 320 -120q68 -78 68 -205l1 -589q0 -22 1.5 -35t7.5 -27.5t19.5 -21.5t35.5 -7q23 -2 38 -19.5t15 -41.5q0 -26 -17.5 -43.5t-44.5 -17.5q-58 0 -105 29q-35 24 -49 68t-17 113q-63 -110 -165 -167.5t-230 -57.5q-163 0 -265 86t-102 234zM229 301 q0 -217 253 -217q155 0 266.5 97.5t111.5 227.5v188q-80 -43 -250 -71q-26 -5 -82 -12.5t-88.5 -13t-78 -20.5t-70.5 -35.5t-43.5 -57t-18.5 -86.5zM259 1347q0 27 27 56q70 91 173 91q52 0 107 -25.5t103 -51t81 -25.5q23 0 43 13t29 25.5t25 37.5q17 25 45 25 q25 0 40 -16.5t15 -37.5q0 -27 -26 -56q-70 -91 -173 -91q-42 0 -86 16t-75.5 35t-67.5 35t-63 16q-58 0 -92 -69q-16 -32 -49 -32q-24 0 -40 16t-16 38z" />
<glyph unicode="&#xe4;" horiz-adv-x="1172" d="M106 293q0 139 93 219q53 44 133.5 67.5t216.5 41.5q9 1 35.5 4.5t41 5t41 5.5t42.5 8t38.5 9.5t36.5 12t29 15t23.5 18.5t12.5 22q11 31 11 74q0 90 -65 150t-198 60q-278 0 -318 -207q-4 -23 -20.5 -38t-40.5 -15q-26 0 -44 18t-18 45q5 51 34.5 107.5t79.5 98.5 q119 101 325 101q215 0 320 -120q68 -78 68 -205l1 -589q0 -22 1.5 -35t7.5 -27.5t19.5 -21.5t35.5 -7q23 -2 38 -19.5t15 -41.5q0 -26 -17.5 -43.5t-44.5 -17.5q-58 0 -105 29q-35 24 -49 68t-17 113q-63 -110 -165 -167.5t-230 -57.5q-163 0 -265 86t-102 234zM229 301 q0 -217 253 -217q155 0 266.5 97.5t111.5 227.5v188q-80 -43 -250 -71q-26 -5 -82 -12.5t-88.5 -13t-78 -20.5t-70.5 -35.5t-43.5 -57t-18.5 -86.5zM316 1350v93q0 23 17.5 39.5t40.5 16.5h19q24 0 41.5 -16.5t17.5 -39.5v-93q0 -23 -17.5 -39.5t-41.5 -16.5h-19 q-23 0 -40.5 17t-17.5 39zM746 1350v93q0 23 17.5 39.5t41.5 16.5h19q24 0 41 -16.5t17 -39.5v-93q0 -23 -17 -39.5t-41 -16.5h-19q-23 0 -41 17t-18 39z" />
<glyph unicode="&#xe5;" horiz-adv-x="1172" d="M106 293q0 139 93 219q53 44 133.5 67.5t216.5 41.5q9 1 35.5 4.5t41 5t41 5.5t42.5 8t38.5 9.5t36.5 12t29 15t23.5 18.5t12.5 22q11 31 11 74q0 90 -65 150t-198 60q-278 0 -318 -207q-4 -23 -20.5 -38t-40.5 -15q-26 0 -44 18t-18 45q5 51 34.5 107.5t79.5 98.5 q119 101 325 101q215 0 320 -120q68 -78 68 -205l1 -589q0 -22 1.5 -35t7.5 -27.5t19.5 -21.5t35.5 -7q23 -2 38 -19.5t15 -41.5q0 -26 -17.5 -43.5t-44.5 -17.5q-58 0 -105 29q-35 24 -49 68t-17 113q-63 -110 -165 -167.5t-230 -57.5q-163 0 -265 86t-102 234zM229 301 q0 -217 253 -217q155 0 266.5 97.5t111.5 227.5v188q-80 -43 -250 -71q-26 -5 -82 -12.5t-88.5 -13t-78 -20.5t-70.5 -35.5t-43.5 -57t-18.5 -86.5zM416 1401q0 74 55 127t133 53q77 0 132 -53t55 -127q0 -75 -55.5 -128.5t-131.5 -53.5q-78 0 -133 53.5t-55 128.5z M486 1401q0 -49 34 -83.5t84 -34.5q49 0 83 34.5t34 83.5q0 47 -34 82t-83 35t-83.5 -35t-34.5 -82z" />
<glyph unicode="&#xe6;" horiz-adv-x="1939" d="M106 293q0 139 93 219q53 44 133.5 67.5t216.5 41.5q9 1 35.5 4.5t41 5t41 5.5t42.5 8t38.5 9.5t36.5 12t29 15t23.5 18.5t12.5 22q11 31 11 74q0 90 -65 150t-198 60q-278 0 -318 -207q-4 -23 -20.5 -38t-40.5 -15q-26 0 -44 18t-18 45q5 51 34.5 107.5t79.5 98.5 q119 101 325 101q215 0 320 -120q36 -42 41 -105q58 105 157 165t238 60q92 0 176 -34.5t152.5 -101t109.5 -176t42 -246.5q0 -22 -14.5 -36.5t-35.5 -14.5h-796q9 -204 101.5 -315.5t275.5 -111.5q61 0 114 17.5t86.5 42.5t61 59t41 59.5t22.5 52.5q5 20 21.5 33t38.5 13 q25 0 42.5 -17.5t17.5 -42.5q0 -19 -13.5 -54t-47.5 -82t-82 -88.5t-127.5 -70t-174.5 -28.5q-167 0 -282 76t-169 220q-56 -145 -174 -220.5t-264 -75.5q-163 0 -265 86t-102 234zM229 301q0 -217 253 -217q155 0 266.5 97.5t111.5 227.5v188q-80 -43 -250 -71 q-26 -5 -82 -12.5t-88.5 -13t-78 -20.5t-70.5 -35.5t-43.5 -57t-18.5 -86.5zM984 605h721q-11 194 -109.5 299t-246.5 106q-161 1 -257.5 -109.5t-107.5 -295.5z" />
<glyph unicode="&#xe7;" horiz-adv-x="1134" d="M110 532q0 270 130.5 426.5t361.5 156.5q83 0 155 -25t118.5 -61t82 -81t52 -80.5t23.5 -64.5q0 -28 -18.5 -47t-45.5 -19q-45 0 -62 45q-40 107 -119.5 164.5t-186.5 57.5q-182 0 -277 -125.5t-93 -340.5q2 -211 97 -333t277 -122q110 0 191.5 64.5t121.5 181.5 q13 41 59 41q27 0 45 -19t18 -46q-2 -28 -19 -67.5t-53 -85.5t-83.5 -85t-118.5 -65.5t-150 -28.5l-70 -125q20 4 35 4q78 0 129.5 -43t51.5 -112q0 -73 -61 -123t-148 -50q-59 0 -134 30q-26 12 -26 38q0 18 12.5 30t29.5 12q9 0 16 -3q59 -26 99 -26q48 0 85.5 24.5 t37.5 67.5q0 38 -31.5 59.5t-78.5 21.5q-28 0 -53 -4t-27 -4q-16 0 -27 10.5t-11 25.5q0 10 5 18l86 153q-108 12 -191.5 61.5t-134 126.5t-75.5 169.5t-25 197.5z" />
<glyph unicode="&#xe8;" horiz-adv-x="1188" d="M110 553q0 84 17 163t55 152.5t94 127.5t139 86.5t185 32.5q92 0 175.5 -34.5t152 -101t109.5 -176t42 -246.5q0 -22 -14.5 -36.5t-35.5 -14.5h-796q21 -427 378 -427q61 0 113.5 17.5t86.5 42.5t61 58.5t40.5 60t22.5 52.5q5 21 21.5 33.5t38.5 12.5q25 0 43 -17.5 t18 -42.5q0 -19 -13.5 -54t-47.5 -82t-82.5 -88.5t-128 -70t-173.5 -28.5q-240 0 -370.5 151t-130.5 429zM233 605h721q-12 194 -110 299t-246 106q-162 1 -258 -109.5t-107 -295.5zM353 1556q0 26 18.5 44.5t43.5 18.5q36 0 54 -32l187 -300q7 -14 7 -24q0 -20 -14 -34 t-33 -14q-21 0 -37 20l-212 285q-14 18 -14 36z" />
<glyph unicode="&#xe9;" horiz-adv-x="1188" d="M110 553q0 84 17 163t55 152.5t94 127.5t139 86.5t185 32.5q92 0 175.5 -34.5t152 -101t109.5 -176t42 -246.5q0 -22 -14.5 -36.5t-35.5 -14.5h-796q21 -427 378 -427q61 0 113.5 17.5t86.5 42.5t61 58.5t40.5 60t22.5 52.5q5 21 21.5 33.5t38.5 12.5q25 0 43 -17.5 t18 -42.5q0 -19 -13.5 -54t-47.5 -82t-82.5 -88.5t-128 -70t-173.5 -28.5q-240 0 -370.5 151t-130.5 429zM233 605h721q-12 194 -110 299t-246 106q-162 1 -258 -109.5t-107 -295.5zM522 1263q0 12 6 24l188 300q19 32 54 32q25 0 43 -18.5t18 -44.5q0 -20 -13 -36 l-212 -285q-16 -20 -38 -20q-19 0 -32.5 14t-13.5 34z" />
<glyph unicode="&#xea;" horiz-adv-x="1188" d="M110 553q0 84 17 163t55 152.5t94 127.5t139 86.5t185 32.5q92 0 175.5 -34.5t152 -101t109.5 -176t42 -246.5q0 -22 -14.5 -36.5t-35.5 -14.5h-796q21 -427 378 -427q61 0 113.5 17.5t86.5 42.5t61 58.5t40.5 60t22.5 52.5q5 21 21.5 33.5t38.5 12.5q25 0 43 -17.5 t18 -42.5q0 -19 -13.5 -54t-47.5 -82t-82.5 -88.5t-128 -70t-173.5 -28.5q-240 0 -370.5 151t-130.5 429zM233 605h721q-12 194 -110 299t-246 106q-162 1 -258 -109.5t-107 -295.5zM324 1264q0 14 10 27l183 252q20 27 46 27h53q27 0 44 -24l186 -255q10 -14 10 -27 q0 -18 -13 -31t-31 -13q-20 0 -34 17l-188 231l-189 -231q-13 -17 -33 -17q-18 0 -31 13t-13 31z" />
<glyph unicode="&#xeb;" horiz-adv-x="1188" d="M110 553q0 84 17 163t55 152.5t94 127.5t139 86.5t185 32.5q92 0 175.5 -34.5t152 -101t109.5 -176t42 -246.5q0 -22 -14.5 -36.5t-35.5 -14.5h-796q21 -427 378 -427q61 0 113.5 17.5t86.5 42.5t61 58.5t40.5 60t22.5 52.5q5 21 21.5 33.5t38.5 12.5q25 0 43 -17.5 t18 -42.5q0 -19 -13.5 -54t-47.5 -82t-82.5 -88.5t-128 -70t-173.5 -28.5q-240 0 -370.5 151t-130.5 429zM233 605h721q-12 194 -110 299t-246 106q-162 1 -258 -109.5t-107 -295.5zM307 1350v93q0 23 17.5 39.5t40.5 16.5h19q24 0 41 -16.5t17 -39.5v-93q0 -23 -17 -39.5 t-41 -16.5h-19q-23 0 -40.5 17t-17.5 39zM737 1350v93q0 23 17.5 39.5t41.5 16.5h19q24 0 40.5 -16.5t16.5 -39.5v-93q0 -23 -16.5 -39.5t-40.5 -16.5h-19q-23 0 -41 17t-18 39z" />
<glyph unicode="&#xec;" horiz-adv-x="497" d="M-4 1556q0 26 18 44.5t43 18.5q37 0 55 -32l187 -300q6 -12 6 -24q0 -20 -13.5 -34t-32.5 -14q-22 0 -38 20l-212 285q-13 16 -13 36zM187 49v990q0 25 18.5 43.5t43.5 18.5t42.5 -18t17.5 -44v-990q0 -26 -17.5 -43.5t-42.5 -17.5q-26 0 -44 18t-18 43z" />
<glyph unicode="&#xed;" horiz-adv-x="497" d="M178 1263q0 12 6 24l188 300q19 32 54 32q25 0 43 -18.5t18 -44.5q0 -20 -13 -36l-212 -285q-16 -20 -38 -20q-19 0 -32.5 14t-13.5 34zM187 49v990q0 25 18.5 43.5t43.5 18.5t42.5 -18t17.5 -44v-990q0 -26 -17.5 -43.5t-42.5 -17.5q-26 0 -44 18t-18 43z" />
<glyph unicode="&#xee;" horiz-adv-x="497" d="M-17 1269q0 14 10 27l183 252q20 27 46 27h53q27 0 44 -24l186 -255q10 -14 10 -27q0 -18 -13 -31t-31 -13q-20 0 -34 17l-188 232l-189 -232q-13 -17 -33 -17q-18 0 -31 13t-13 31zM187 49v990q0 25 18.5 43.5t43.5 18.5t42.5 -18t17.5 -44v-990q0 -26 -17.5 -43.5 t-42.5 -17.5q-26 0 -44 18t-18 43z" />
<glyph unicode="&#xef;" horiz-adv-x="497" d="M-34 1350v93q0 23 17.5 39.5t40.5 16.5h19q24 0 41 -16.5t17 -39.5v-93q0 -23 -17 -39.5t-41 -16.5h-19q-23 0 -40.5 17t-17.5 39zM187 49v990q0 25 18.5 43.5t43.5 18.5t42.5 -18t17.5 -44v-990q0 -26 -17.5 -43.5t-42.5 -17.5q-26 0 -44 18t-18 43zM396 1350v93 q0 23 17.5 39.5t41.5 16.5h19q24 0 40.5 -16.5t16.5 -39.5v-93q0 -23 -16.5 -39.5t-40.5 -16.5h-19q-23 0 -41 17t-18 39z" />
<glyph unicode="&#xf0;" horiz-adv-x="1203" d="M110 497q0 243 134 384t354 142q99 1 189 -40t157 -128q-78 232 -225 384l-182 -121q-9 -6 -21 -6q-17 0 -27.5 11t-10.5 26q0 22 17 32l168 112q-73 65 -182 128q-29 19 -29 53q0 26 18 43.5t43 17.5q17 0 28 -7q119 -67 223 -168l176 118q9 6 22 6q17 0 27 -11.5 t10 -26.5q0 -20 -16 -31l-166 -110q277 -309 277 -759q0 -91 -16.5 -173t-54 -155.5t-93 -127t-138 -85t-185.5 -31.5q-230 0 -363.5 142t-133.5 381zM231 496q0 -189 99 -300t270 -111t270.5 111.5t99.5 298.5q0 189 -101.5 303.5t-272.5 114.5q-167 0 -266 -116t-99 -301z " />
<glyph unicode="&#xf1;" horiz-adv-x="1226" d="M187 49v990q0 25 18.5 43.5t43.5 18.5t42.5 -18t17.5 -44v-143q22 39 52 73.5t76 69.5t112 55.5t143 20.5q163 0 261.5 -95t98.5 -270v-701q0 -25 -18 -43t-43 -18t-43 18t-18 43v694q0 122 -61 192t-189 70q-75 0 -138.5 -22.5t-105 -58t-71.5 -79.5t-43 -86t-13 -78 v-632q0 -26 -17.5 -43.5t-42.5 -17.5q-26 0 -44 18t-18 43zM275 1347q0 27 27 56q70 91 173 91q52 0 107 -25.5t103 -51t81 -25.5q23 0 43 13t29 25.5t25 37.5q17 25 45 25q25 0 40.5 -16.5t15.5 -37.5q0 -26 -27 -56q-70 -91 -173 -91q-42 0 -86 16t-75.5 35t-67.5 35 t-63 16q-58 0 -92 -69q-16 -32 -48 -32q-24 0 -40.5 16t-16.5 38z" />
<glyph unicode="&#xf2;" horiz-adv-x="1202" d="M110 551q0 264 133.5 414t354.5 150q216 0 355.5 -151.5t139.5 -412.5q0 -267 -134.5 -422.5t-360.5 -155.5q-222 0 -355 156t-133 422zM231 551q0 -218 98 -342.5t269 -124.5q175 0 274 124.5t99 342.5q0 205 -102 329.5t-271 124.5q-170 0 -268.5 -124t-98.5 -330z M342 1556q0 26 18 44.5t43 18.5q37 0 55 -32l187 -300q6 -12 6 -24q0 -20 -13.5 -34t-32.5 -14q-22 0 -38 20l-212 285q-13 16 -13 36z" />
<glyph unicode="&#xf3;" horiz-adv-x="1202" d="M110 551q0 264 133.5 414t354.5 150q216 0 355.5 -151.5t139.5 -412.5q0 -267 -134.5 -422.5t-360.5 -155.5q-222 0 -355 156t-133 422zM231 551q0 -218 98 -342.5t269 -124.5q175 0 274 124.5t99 342.5q0 205 -102 329.5t-271 124.5q-170 0 -268.5 -124t-98.5 -330z M543 1263q0 12 6 24l187 300q19 32 55 32q25 0 43 -18.5t18 -44.5q0 -20 -13 -36l-212 -285q-16 -20 -38 -20q-19 0 -32.5 14t-13.5 34z" />
<glyph unicode="&#xf4;" horiz-adv-x="1202" d="M110 551q0 264 133.5 414t354.5 150q216 0 355.5 -151.5t139.5 -412.5q0 -267 -134.5 -422.5t-360.5 -155.5q-222 0 -355 156t-133 422zM231 551q0 -218 98 -342.5t269 -124.5q175 0 274 124.5t99 342.5q0 205 -102 329.5t-271 124.5q-170 0 -268.5 -124t-98.5 -330z M335 1269q0 14 10 27l183 252q20 27 46 27h54q27 0 44 -24l185 -255q10 -14 10 -27q0 -18 -13 -31t-31 -13q-19 0 -33 17l-189 232l-188 -232q-13 -17 -34 -17q-18 0 -31 13t-13 31z" />
<glyph unicode="&#xf5;" horiz-adv-x="1202" d="M110 551q0 264 133.5 414t354.5 150q216 0 355.5 -151.5t139.5 -412.5q0 -267 -134.5 -422.5t-360.5 -155.5q-222 0 -355 156t-133 422zM231 551q0 -218 98 -342.5t269 -124.5q175 0 274 124.5t99 342.5q0 205 -102 329.5t-271 124.5q-170 0 -268.5 -124t-98.5 -330z M257 1347q0 27 27 56q70 91 173 91q52 0 107 -25.5t103 -51t81 -25.5q23 0 43 13t29 25.5t25 37.5q17 25 45 25q25 0 40 -16.5t15 -37.5q0 -27 -26 -56q-70 -91 -174 -91q-53 0 -108 25.5t-102.5 51t-80.5 25.5q-58 0 -93 -69q-16 -32 -48 -32q-24 0 -40 16t-16 38z" />
<glyph unicode="&#xf6;" horiz-adv-x="1202" d="M110 551q0 264 133.5 414t354.5 150q216 0 355.5 -151.5t139.5 -412.5q0 -267 -134.5 -422.5t-360.5 -155.5q-222 0 -355 156t-133 422zM231 551q0 -218 98 -342.5t269 -124.5q175 0 274 124.5t99 342.5q0 205 -102 329.5t-271 124.5q-170 0 -268.5 -124t-98.5 -330z M318 1350v93q0 23 17.5 39.5t40.5 16.5h19q24 0 41.5 -16.5t17.5 -39.5v-93q0 -23 -17.5 -39.5t-41.5 -16.5h-19q-23 0 -40.5 17t-17.5 39zM749 1350v93q0 23 17.5 39.5t40.5 16.5h19q24 0 41 -16.5t17 -39.5v-93q0 -23 -17 -39.5t-41 -16.5h-19q-23 0 -40.5 17t-17.5 39z " />
<glyph unicode="&#xf7;" horiz-adv-x="1303" d="M137 722q0 21 14.5 36t36.5 15h927q22 0 36.5 -15t14.5 -36q0 -22 -14.5 -37t-36.5 -15h-927q-22 0 -36.5 15t-14.5 37zM556 269v100q0 25 18.5 43t43.5 18h23q26 0 44 -18t18 -43v-100q0 -25 -18 -42.5t-44 -17.5h-23q-25 0 -43.5 17.5t-18.5 42.5zM556 1072v99 q0 25 18.5 43.5t43.5 18.5h23q25 0 43.5 -18.5t18.5 -43.5v-99q0 -25 -18 -42.5t-44 -17.5h-23q-25 0 -43.5 17.5t-18.5 42.5z" />
<glyph unicode="&#xf8;" horiz-adv-x="1202" d="M110 551q0 264 133.5 414t354.5 150q167 0 291 -92l81 114q13 18 36 18q18 0 30 -12t12 -31q0 -14 -8 -25l-88 -122q141 -156 141 -414q0 -267 -134.5 -422.5t-360.5 -155.5q-166 0 -287 90l-80 -111q-12 -19 -34 -19q-18 0 -30.5 12.5t-12.5 30.5q0 14 8 26l86 121 q-138 155 -138 428zM231 551q0 -205 87 -329l503 707q-92 76 -223 76q-170 0 -268.5 -124t-98.5 -330zM378 158q89 -74 220 -74q175 0 274 124.5t99 342.5q0 190 -90 313z" />
<glyph unicode="&#xf9;" horiz-adv-x="1207" d="M173 339v700q0 26 17.5 44t42.5 18t43.5 -18.5t18.5 -43.5v-695q0 -260 245 -260q70 0 131 22.5t101.5 57.5t69.5 79t42.5 86t13.5 79v631q0 26 17.5 44t42.5 18t43 -18t18 -44v-990q0 -25 -17.5 -43t-43.5 -18q-25 0 -42.5 17.5t-17.5 43.5v142q-22 -38 -52 -73 t-75 -69.5t-108.5 -55t-135.5 -20.5q-163 0 -258.5 95t-95.5 271zM337 1556q0 26 18 44.5t43 18.5q37 0 55 -32l187 -300q6 -12 6 -24q0 -20 -13.5 -34t-32.5 -14q-22 0 -38 20l-212 285q-13 16 -13 36z" />
<glyph unicode="&#xfa;" horiz-adv-x="1207" d="M173 339v700q0 26 17.5 44t42.5 18t43.5 -18.5t18.5 -43.5v-695q0 -260 245 -260q70 0 131 22.5t101.5 57.5t69.5 79t42.5 86t13.5 79v631q0 26 17.5 44t42.5 18t43 -18t18 -44v-990q0 -25 -17.5 -43t-43.5 -18q-25 0 -42.5 17.5t-17.5 43.5v142q-22 -38 -52 -73 t-75 -69.5t-108.5 -55t-135.5 -20.5q-163 0 -258.5 95t-95.5 271zM514 1263q0 12 6 24l188 300q19 32 54 32q25 0 43 -18.5t18 -44.5q0 -20 -13 -36l-212 -285q-16 -20 -38 -20q-19 0 -32.5 14t-13.5 34z" />
<glyph unicode="&#xfb;" horiz-adv-x="1207" d="M173 339v700q0 26 17.5 44t42.5 18t43.5 -18.5t18.5 -43.5v-695q0 -260 245 -260q70 0 131 22.5t101.5 57.5t69.5 79t42.5 86t13.5 79v631q0 26 17.5 44t42.5 18t43 -18t18 -44v-990q0 -25 -17.5 -43t-43.5 -18q-25 0 -42.5 17.5t-17.5 43.5v142q-22 -38 -52 -73 t-75 -69.5t-108.5 -55t-135.5 -20.5q-163 0 -258.5 95t-95.5 271zM330 1269q0 14 10 27l183 252q20 27 46 27h54q27 0 44 -24l185 -255q10 -14 10 -27q0 -18 -13 -31t-31 -13q-20 0 -34 17l-188 232l-188 -232q-13 -17 -34 -17q-18 0 -31 13t-13 31z" />
<glyph unicode="&#xfc;" horiz-adv-x="1207" d="M173 339v700q0 26 17.5 44t42.5 18t43.5 -18.5t18.5 -43.5v-695q0 -260 245 -260q70 0 131 22.5t101.5 57.5t69.5 79t42.5 86t13.5 79v631q0 26 17.5 44t42.5 18t43 -18t18 -44v-990q0 -25 -17.5 -43t-43.5 -18q-25 0 -42.5 17.5t-17.5 43.5v142q-22 -38 -52 -73 t-75 -69.5t-108.5 -55t-135.5 -20.5q-163 0 -258.5 95t-95.5 271zM313 1350v93q0 23 17.5 39.5t40.5 16.5h19q24 0 41.5 -16.5t17.5 -39.5v-93q0 -23 -17.5 -39.5t-41.5 -16.5h-19q-23 0 -40.5 17t-17.5 39zM743 1350v93q0 23 17.5 39.5t41.5 16.5h19q24 0 41 -16.5 t17 -39.5v-93q0 -23 -17 -39.5t-41 -16.5h-19q-23 0 -41 17t-18 39z" />
<glyph unicode="&#xfd;" horiz-adv-x="1048" d="M76 1037q0 28 18.5 46t43.5 18q20 0 36 -11.5t22 -30.5l254 -678q67 -184 93 -260q62 195 85 262l224 674q5 19 21.5 31.5t35.5 12.5q27 0 45.5 -18t18.5 -45q0 -10 -4 -21l-405 -1149q-39 -110 -107 -168q-66 -56 -175 -56q-46 0 -86 8q-22 3 -36.5 19.5t-14.5 38.5 q0 26 17.5 42.5t42.5 16.5q7 -1 41.5 -6t47.5 -4.5t48 7.5q71 17 109 118l33 96l-403 1034q-5 15 -5 23zM458 1242q0 13 6 25l187 300q19 31 55 31q25 0 43 -18t18 -44q0 -21 -13 -37l-212 -285q-16 -19 -38 -19q-19 0 -32.5 13.5t-13.5 33.5z" />
<glyph unicode="&#xfe;" horiz-adv-x="1254" d="M187 -314v1774q0 25 18.5 43t43.5 18t42.5 -18t17.5 -43v-588q49 118 142.5 180.5t215.5 62.5q215 0 347 -155.5t132 -410.5q0 -257 -131.5 -416.5t-338.5 -159.5q-121 0 -218.5 67.5t-148.5 184.5v-539q0 -25 -17.5 -43t-42.5 -18t-43.5 18t-18.5 43zM308 549 q0 -203 100 -335t259 -132q111 0 192.5 62t122 166.5t40.5 238.5q0 205 -94 330t-264 125q-157 0 -256.5 -121.5t-99.5 -333.5z" />
<glyph unicode="&#xff;" horiz-adv-x="1048" d="M76 1037q0 28 18.5 46t43.5 18q20 0 36 -11.5t22 -30.5l254 -678q67 -184 93 -260q62 195 85 262l224 674q5 19 21.5 31.5t35.5 12.5q27 0 45.5 -18t18.5 -45q0 -10 -4 -21l-405 -1149q-39 -110 -107 -168q-66 -56 -175 -56q-46 0 -86 8q-22 3 -36.5 19.5t-14.5 38.5 q0 26 17.5 42.5t42.5 16.5q7 -1 41.5 -6t47.5 -4.5t48 7.5q71 17 109 118l33 96l-403 1034q-5 15 -5 23zM242 1350v93q0 23 17 39.5t40 16.5h19q24 0 41.5 -16.5t17.5 -39.5v-93q0 -23 -17.5 -39.5t-41.5 -16.5h-19q-23 0 -40 16.5t-17 39.5zM672 1350v93q0 23 17.5 39.5 t40.5 16.5h20q24 0 40.5 -16.5t16.5 -39.5v-93q0 -23 -16.5 -39.5t-40.5 -16.5h-20q-23 0 -40.5 17t-17.5 39z" />
<glyph unicode="&#x152;" horiz-adv-x="2524" d="M124 753q0 228 91 407t249.5 277t354.5 98q191 0 335.5 -89t227.5 -250v249q0 26 18.5 44.5t45.5 18.5h892q24 0 41 -17.5t17 -40.5q0 -24 -17 -40.5t-41 -16.5h-828v-577h747q24 0 41 -17t17 -41t-17 -41t-41 -17h-747v-584h850q23 0 40.5 -17.5t17.5 -40.5 q0 -24 -17 -41t-41 -17h-914q-27 0 -45.5 19t-18.5 46v248q-83 -162 -228 -251.5t-335 -89.5q-194 0 -352.5 98t-250.5 277.5t-92 405.5zM259 753q0 -196 73 -348t200 -234t287 -82q245 0 403.5 184t158.5 480q0 294 -159.5 480.5t-402.5 186.5q-159 0 -286.5 -83.5 t-200.5 -236.5t-73 -347z" />
<glyph unicode="&#x153;" horiz-adv-x="2050" d="M110 551q0 264 133.5 414t354.5 150q144 0 257.5 -70t175.5 -199q58 124 165 196.5t265 72.5q92 0 175.5 -34.5t152 -101t109.5 -176t42 -246.5q0 -22 -14.5 -36.5t-35.5 -14.5h-795q21 -427 378 -427q61 0 113.5 17.5t86 42.5t60.5 58.5t40.5 60t22.5 52.5q5 20 22 33 t39 13q25 0 42.5 -17.5t17.5 -42.5q0 -19 -13.5 -54t-47.5 -82t-82 -88.5t-127.5 -70t-173.5 -28.5q-159 0 -272 68t-172 198q-60 -128 -171.5 -197t-259.5 -69q-222 0 -355 156t-133 422zM231 551q0 -218 98 -342.5t269 -124.5q175 0 274 124.5t99 342.5q0 205 -102 329.5 t-271 124.5q-170 0 -268.5 -124t-98.5 -330zM1095 605h720q-11 194 -109.5 299t-247.5 106q-161 1 -256.5 -109.5t-106.5 -295.5z" />
<glyph unicode="&#x178;" horiz-adv-x="1288" d="M79 1457q0 28 18.5 46t44.5 18q36 0 54 -30l448 -735l449 735q18 30 54 30q25 0 43.5 -18.5t18.5 -45.5q0 -19 -10 -36l-491 -778v-591q0 -27 -18.5 -45.5t-45.5 -18.5t-45.5 18.5t-18.5 45.5v591l-491 778q-10 17 -10 36zM319 1750v93q0 23 17.5 40t40.5 17h19 q24 0 41.5 -17t17.5 -40v-93q0 -23 -17.5 -39.5t-41.5 -16.5h-19q-23 0 -40.5 16.5t-17.5 39.5zM834 1750v93q0 23 17 40t40 17h20q23 0 40.5 -17t17.5 -40v-93q0 -23 -17.5 -39.5t-40.5 -16.5h-20q-23 0 -40 16.5t-17 39.5z" />
<glyph unicode="&#x2c6;" horiz-adv-x="1024" d="M246 1269q0 14 10 27l183 252q20 27 46 27h54q27 0 44 -24l185 -255q10 -14 10 -27q0 -18 -13 -31t-31 -13q-20 0 -34 17l-188 232l-188 -232q-13 -17 -34 -17q-18 0 -31 13t-13 31z" />
<glyph unicode="&#x2dc;" horiz-adv-x="1024" d="M168 1347q0 27 27 56q70 91 173 91q52 0 107 -25.5t102.5 -51t80.5 -25.5q23 0 43 13t30 26t25 37q17 25 45 25q25 0 40 -16.5t15 -37.5q0 -26 -27 -56q-70 -91 -173 -91q-53 0 -108 25.5t-102.5 51t-80.5 25.5q-59 0 -93 -69q-16 -32 -48 -32q-24 0 -40 16t-16 38z" />
<glyph unicode="&#x2000;" horiz-adv-x="1004" />
<glyph unicode="&#x2001;" horiz-adv-x="2008" />
<glyph unicode="&#x2002;" horiz-adv-x="1004" />
<glyph unicode="&#x2003;" horiz-adv-x="2008" />
<glyph unicode="&#x2004;" horiz-adv-x="669" />
<glyph unicode="&#x2005;" horiz-adv-x="502" />
<glyph unicode="&#x2006;" horiz-adv-x="334" />
<glyph unicode="&#x2007;" horiz-adv-x="334" />
<glyph unicode="&#x2008;" horiz-adv-x="251" />
<glyph unicode="&#x2009;" horiz-adv-x="401" />
<glyph unicode="&#x200a;" horiz-adv-x="111" />
<glyph unicode="&#x2010;" horiz-adv-x="855" d="M117 650q0 24 16.5 40.5t39.5 16.5h509q23 0 39.5 -16.5t16.5 -40.5t-16.5 -40t-39.5 -16h-509q-23 0 -39.5 16t-16.5 40z" />
<glyph unicode="&#x2011;" horiz-adv-x="855" d="M117 650q0 24 16.5 40.5t39.5 16.5h509q23 0 39.5 -16.5t16.5 -40.5t-16.5 -40t-39.5 -16h-509q-23 0 -39.5 16t-16.5 40z" />
<glyph unicode="&#x2012;" horiz-adv-x="855" d="M117 650q0 24 16.5 40.5t39.5 16.5h509q23 0 39.5 -16.5t16.5 -40.5t-16.5 -40t-39.5 -16h-509q-23 0 -39.5 16t-16.5 40z" />
<glyph unicode="&#x2013;" horiz-adv-x="1263" d="M117 651q0 21 14.5 36t36.5 15h927q22 0 37 -15t15 -36q0 -22 -15 -37t-37 -15h-927q-22 0 -36.5 15t-14.5 37z" />
<glyph unicode="&#x2014;" horiz-adv-x="1883" d="M117 650q0 21 14.5 36t36.5 15h1547q22 0 36.5 -15t14.5 -36t-14.5 -36t-36.5 -15h-1547q-22 0 -36.5 15t-14.5 36z" />
<glyph unicode="&#x2018;" horiz-adv-x="529" d="M177 1043v166q0 74 16 132t42.5 93t52 54.5t52.5 29.5q6 3 13 3q13 0 23 -10t10 -24q0 -19 -17 -28q-31 -27 -47 -45.5t-29 -55.5t-13 -88l10 -7q24 -2 41 -20.5t17 -44.5v-155q0 -27 -19.5 -46t-47.5 -19h-36q-29 0 -48.5 19t-19.5 46z" />
<glyph unicode="&#x2019;" horiz-adv-x="529" d="M143 1012q0 16 18 27q31 26 47.5 45t29 56t12.5 89l-9 7q-24 2 -41.5 20t-17.5 44v155q0 27 19.5 46.5t47.5 19.5h37q28 0 47 -19.5t19 -46.5v-166q0 -74 -16 -132t-43 -92.5t-52 -54.5t-52 -30q-8 -2 -12 -2q-14 0 -24 10t-10 24z" />
<glyph unicode="&#x201a;" horiz-adv-x="529" d="M143 -226q0 18 18 27q47 39 68 78t21 113l-9 6q-25 2 -42 20t-17 44v156q0 27 19.5 46.5t47.5 19.5h37q28 0 47 -19.5t19 -46.5v-166q0 -74 -16 -132t-43 -92.5t-52 -54.5t-52 -30q-6 -3 -12 -3q-13 0 -23.5 10t-10.5 24z" />
<glyph unicode="&#x201c;" horiz-adv-x="880" d="M177 1043v166q0 74 16 132t42.5 93t52 54.5t52.5 29.5q6 3 12 3q14 0 24 -10t10 -24q0 -18 -17 -28q-31 -27 -47 -45.5t-29 -55.5t-13 -88l10 -7q24 -2 40.5 -20.5t16.5 -44.5v-155q0 -27 -19 -46t-47 -19h-37q-28 0 -47.5 19t-19.5 46zM528 1043v166q0 74 16 132 t42.5 93t52 54.5t52.5 29.5q6 3 12 3q14 0 24 -10t10 -24q0 -18 -17 -28q-31 -27 -47 -45.5t-29 -55.5t-13 -88l10 -7q24 -2 40.5 -20.5t16.5 -44.5v-155q0 -27 -19 -46t-47 -19h-37q-28 0 -47.5 19t-19.5 46z" />
<glyph unicode="&#x201d;" horiz-adv-x="880" d="M143 1012q0 16 18 27q31 26 47.5 45t29 56t12.5 89l-9 7q-24 2 -41.5 20t-17.5 44v155q0 27 19.5 46.5t47.5 19.5h37q28 0 47 -19.5t19 -46.5v-166q0 -74 -16 -132t-43 -92.5t-52 -54.5t-52 -30q-8 -2 -12 -2q-14 0 -24 10t-10 24zM495 1012q0 17 17 27q31 26 47.5 45 t29 56t12.5 89l-9 7q-24 2 -41 20t-17 44v155q0 27 19 46.5t47 19.5h37q28 0 47 -19.5t19 -46.5v-166q0 -74 -16 -132t-42.5 -92.5t-51.5 -54.5t-52 -30q-8 -2 -13 -2q-14 0 -23.5 10t-9.5 24z" />
<glyph unicode="&#x201e;" horiz-adv-x="880" d="M143 -226q0 18 18 27q47 39 68 78t21 113l-9 6q-25 2 -42 20t-17 44v156q0 27 19.5 46.5t47.5 19.5h37q28 0 47 -19.5t19 -46.5v-166q0 -74 -16 -132t-43 -92.5t-52 -54.5t-52 -30q-6 -3 -12 -3q-13 0 -23.5 10t-10.5 24zM495 -226q0 18 17 27q47 39 68 78t21 113l-9 6 q-24 2 -41 20t-17 44v156q0 27 19 46.5t47 19.5h37q28 0 47 -19.5t19 -46.5v-166q0 -74 -16 -132t-42.5 -92.5t-51.5 -54.5t-52 -30q-6 -3 -13 -3q-13 0 -23 10t-10 24z" />
<glyph unicode="&#x2022;" horiz-adv-x="1065" d="M233 609v100q0 101 74.5 173.5t176.5 72.5h98q104 0 177.5 -72.5t73.5 -173.5v-100q0 -104 -73 -174t-178 -70h-98q-103 0 -177 70t-74 174z" />
<glyph unicode="&#x2026;" horiz-adv-x="1577" d="M177 53v167q0 27 20 46.5t48 19.5h37q28 0 47.5 -19.5t19.5 -46.5v-167q0 -28 -19.5 -46.5t-47.5 -18.5h-37q-28 0 -48 19t-20 46zM699 53v167q0 27 20 46.5t48 19.5h36q28 0 47.5 -19.5t19.5 -46.5v-167q0 -28 -19 -46.5t-48 -18.5h-36q-28 0 -48 19t-20 46zM1230 53 v167q0 27 19.5 46.5t47.5 19.5h36q28 0 48 -19.5t20 -46.5v-167q0 -28 -19.5 -46.5t-48.5 -18.5h-36q-28 0 -47.5 18.5t-19.5 46.5z" />
<glyph unicode="&#x202f;" horiz-adv-x="401" />
<glyph unicode="&#x2039;" horiz-adv-x="793" d="M162 551q0 16 11 32l320 411q15 21 43 21q22 0 38 -15.5t16 -38.5q0 -21 -13 -38l-307 -372l302 -368q18 -21 18 -42q0 -23 -15.5 -39t-38.5 -16q-30 0 -49 26l-315 409q-10 13 -10 30z" />
<glyph unicode="&#x203a;" horiz-adv-x="793" d="M201 141q0 22 17 42l302 368l-305 372q-14 16 -14 38q0 23 16 38.5t39 15.5q27 0 43 -21l318 -411q12 -17 12 -32t-11 -30l-315 -409q-19 -26 -47 -26q-23 0 -39 16t-16 39z" />
<glyph unicode="&#x205f;" horiz-adv-x="502" />
<glyph unicode="&#x20ac;" horiz-adv-x="1337" d="M12 567q0 20 15 34.5t35 14.5h171q-10 110 -1 223h-170q-20 0 -35 14.5t-15 35.5q0 20 15 34.5t35 14.5h182q42 264 185 408.5t354 144.5q71 0 135 -17t109.5 -42.5t86 -61t65 -66.5t45.5 -66q10 -12 10 -35q0 -26 -19 -44.5t-46 -18.5q-38 0 -56 34q-118 207 -334 207 q-155 0 -266 -114.5t-145 -328.5l574 -1q21 0 35.5 -14.5t14.5 -34.5t-14.5 -34.5t-35.5 -14.5h-588q-8 -113 2 -223h507q21 0 35.5 -14.5t14.5 -34.5q0 -21 -14.5 -35.5t-35.5 -14.5h-493q35 -206 140 -319.5t269 -113.5q125 0 213 60t131 159q6 20 22.5 32.5t38.5 12.5 q27 0 45.5 -18.5t18.5 -45.5q0 -28 -19 -63q-149 -248 -452 -248q-203 0 -346.5 137.5t-185.5 406.5h-183q-20 0 -35 14.5t-15 35.5z" />
<glyph unicode="&#x2122;" horiz-adv-x="1658" d="M71 1473q0 18 12 29.5t30 11.5h509q18 0 30.5 -11.5t12.5 -29.5q0 -17 -13 -29.5t-30 -12.5h-208v-594q0 -20 -13 -33t-33 -13t-33.5 13t-13.5 33v594h-208q-17 0 -29.5 12.5t-12.5 29.5zM782 838v629q0 20 13.5 33.5t33.5 13.5h48q31 0 42 -29l160 -409q53 -137 59 -155 q22 71 57 154l161 410q10 29 41 29h47q20 0 33.5 -13.5t13.5 -33.5v-629q0 -20 -13.5 -33.5t-33.5 -13.5t-33 13.5t-13 33.5v367q0 99 3 162q-12 -36 -34.5 -92.5t-23.5 -59.5l-158 -396q-10 -28 -42 -28h-11q-32 0 -42 28l-160 400q-3 7 -24 60t-33 88q3 -94 3 -162v-367 q0 -20 -13.5 -33.5t-33.5 -13.5t-33.5 13.5t-13.5 33.5z" />
<glyph unicode="&#x25fc;" horiz-adv-x="1100" d="M0 0v1101h1101v-1101h-1101z" />
</font>
</defs>
</svg>
